<?xml version="1.0" encoding="utf-8"?>
<!-- Generator: Adobe Illustrator 26.3.1, SVG Export Plug-In . SVG Version: 6.00 Build 0)  -->
<!DOCTYPE svg PUBLIC "-//W3C//DTD SVG 1.1//EN" "http://www.w3.org/Graphics/SVG/1.1/DTD/svg11.dtd" [
	<!ENTITY ns_extend "http://ns.adobe.com/Extensibility/1.0/">
	<!ENTITY ns_ai "http://ns.adobe.com/AdobeIllustrator/10.0/">
	<!ENTITY ns_graphs "http://ns.adobe.com/Graphs/1.0/">
	<!ENTITY ns_vars "http://ns.adobe.com/Variables/1.0/">
	<!ENTITY ns_imrep "http://ns.adobe.com/ImageReplacement/1.0/">
	<!ENTITY ns_sfw "http://ns.adobe.com/SaveForWeb/1.0/">
	<!ENTITY ns_custom "http://ns.adobe.com/GenericCustomNamespace/1.0/">
	<!ENTITY ns_adobe_xpath "http://ns.adobe.com/XPath/1.0/">
]>
<svg version="1.1" id="_лой_1" xmlns:x="&ns_extend;" xmlns:i="&ns_ai;" xmlns:graph="&ns_graphs;"
	 xmlns="http://www.w3.org/2000/svg" xmlns:xlink="http://www.w3.org/1999/xlink" x="0px" y="0px" viewBox="0 0 150 150"
	 style="enable-background:new 0 0 150 150;" xml:space="preserve">
<style type="text/css">
	.st0{fill:#8DC6FF;}
	.st1{fill:#FFCA00;}
	.st2{fill:#BEE3FC;}
</style>
<metadata>
	<sfw  xmlns="&ns_sfw;">
		<slices></slices>
		<sliceSourceBounds  bottomLeftOrigin="true" height="149.2" width="149.2" x="0.9" y="0.8"></sliceSourceBounds>
	</sfw>
</metadata>
<path class="st0" d="M123.1,7.5c-4.3,0-8.6,1.1-12.9,3.2C105.9,4.3,98.4,0,89.8,0S73.7,4.3,69.4,10.8c-4.3-3.2-8.6-4.3-14-4.3
	c-14,0-25.8,11.9-25.8,25.9s11.8,25.8,25.8,25.8c3.2,0,6.4-1.1,9.7-2.2c4.3,7.5,12.9,12.9,22.6,12.9s18.3-5.4,22.6-14
	c4.3,2.2,8.6,4.3,14,4.3c14,0,25.8-11.8,25.8-25.8C148.9,19.4,137.1,7.5,123.1,7.5L123.1,7.5L123.1,7.5z"/>
<g>
	<g>
		<path class="st1" d="M15.2,71.6c0.3,0.9,0.9,2.1,1.5,3.1c0.6,1.1,1.3,2.1,1.8,2.8c0.2,0.3,0.4,0.6,0.6,0.8l0,0
			c1.1-2.4,2.6-4.7,4.5-6.5c-0.2-0.1-0.5-0.2-0.8-0.3c-0.9-0.3-2-0.6-3.3-0.9c-0.6-0.1-1.2-0.2-1.8-0.3c-0.6-0.1-1.1-0.1-1.6-0.2
			c-0.9-0.1-1.6-0.1-1.6-0.1s0,0.2,0.2,0.4C14.9,70.7,15,71.1,15.2,71.6L15.2,71.6z"/>
		<path class="st1" d="M18.9,78.8c-0.2,0-0.4,0-0.7,0c-0.4,0-1,0.1-1.5,0.2c-0.5,0.1-1.2,0.2-1.8,0.3c-1.2,0.2-2.4,0.5-3.3,0.9
			c-0.9,0.3-1.5,0.5-1.5,0.5s0.1,0.1,0.3,0.3c0.2,0.2,0.5,0.5,0.8,0.9c0.7,0.7,1.6,1.5,2.6,2.3c1,0.8,2,1.4,2.8,1.9
			c0.2,0.2,0.5,0.3,0.7,0.4c0,0.2,0,0.5,0,0.8C17.1,84.2,17.8,81.4,18.9,78.8L18.9,78.8L18.9,78.8z"/>
		<path class="st1" d="M23,67c0.1,0.6,0.2,1.2,0.3,1.8c0,0.3,0.1,0.5,0.2,0.8c0,0.2,0.1,0.5,0.2,0.7c0.1,0.5,0.2,0.9,0.3,1.1
			c0,0-0.1,0.1-0.2,0.2c2-1.9,4.3-3.5,6.9-4.5c-0.2-0.2-0.4-0.4-0.8-0.7c-0.3-0.3-0.8-0.7-1.2-1s-1-0.7-1.4-1c-0.5-0.3-1-0.7-1.5-1
			c-0.5-0.3-1-0.5-1.4-0.8c-0.9-0.4-1.4-0.7-1.4-0.7s0,0.7,0,1.6c0,0.5,0,1,0,1.6C22.9,65.8,22.9,66.4,23,67L23,67z"/>
		<path class="st1" d="M16.4,94.5c0.5,0.1,1,0.2,1.5,0.3c0.2,0,0.4,0.1,0.6,0.1c-0.9-2.4-1.4-4.9-1.4-7.6c0,0,0,0,0,0
			c-0.1,0.1-0.2,0.1-0.4,0.2c-0.8,0.4-1.9,1-2.9,1.7c-1,0.7-2,1.4-2.7,2.1c-0.7,0.6-1.2,1-1.2,1s0.2,0.1,0.4,0.2
			c0.2,0.1,0.6,0.3,1,0.5c0.4,0.2,1,0.4,1.5,0.5c0.5,0.2,1.2,0.3,1.7,0.5C15.3,94.2,15.9,94.3,16.4,94.5L16.4,94.5z"/>
		<path class="st1" d="M38.9,65.5C39,65.5,39,65.5,38.9,65.5L38.9,65.5c-0.1-0.2-0.2-0.6-0.5-1c-0.4-0.8-1-1.9-1.7-2.9
			c-0.7-1-1.4-2-2.1-2.7c-0.6-0.7-1-1.2-1-1.2l-0.2,0.4c-0.1,0.2-0.3,0.6-0.5,1c-0.2,0.4-0.4,1-0.6,1.5c-0.2,0.5-0.3,1.2-0.5,1.7
			c-0.2,0.5-0.3,1.2-0.4,1.7c-0.1,0.5-0.2,1-0.3,1.5c-0.1,0.7-0.2,1.1-0.2,1.3C33.4,66,36.1,65.5,38.9,65.5L38.9,65.5z"/>
		<path class="st1" d="M48,67.4c4.8,2.2,8.7,6.1,10.9,11c0.2-0.2,0.4-0.5,0.7-0.8c0.3-0.3,0.7-0.8,1-1.2c0.3-0.4,0.7-1,1-1.4
			c0.3-0.5,0.7-1,1-1.5c0.3-0.5,0.5-1,0.8-1.4c0.4-0.9,0.7-1.4,0.7-1.4s-0.7,0-1.6,0c-0.5,0-1,0-1.6,0c-0.6,0-1.2,0.1-1.8,0.2
			c-0.6,0.1-1.2,0.2-1.8,0.3c-0.3,0-0.5,0.1-0.8,0.2c-0.2,0-0.5,0.1-0.7,0.2c-0.9,0.2-1.4,0.4-1.4,0.4l0,0c0,0-0.1-0.1-0.1-0.1
			c0.1-0.2,0.2-0.6,0.3-1.1c0.3-0.9,0.6-2,0.9-3.3c0.1-0.6,0.2-1.2,0.3-1.8c0.1-0.5,0.1-1.1,0.2-1.6c0.1-0.9,0.1-1.6,0.1-1.6
			s-0.2,0-0.4,0.2c-0.3,0.1-0.7,0.2-1.1,0.4c-0.9,0.3-2.1,0.9-3.1,1.5c-1.1,0.6-2.1,1.3-2.8,1.8c-0.3,0.3-0.7,0.5-0.9,0.7
			C47.4,67,47.3,67,47.3,67s0.1,0,0.3,0.2C47.7,67.3,47.8,67.3,48,67.4L48,67.4z"/>
		<path class="st1" d="M47.1,67.1c0-0.2,0-0.7-0.1-1.2c0-0.4-0.1-1-0.2-1.5c-0.1-0.5-0.2-1.2-0.3-1.8c-0.2-1.2-0.5-2.4-0.9-3.3
			c-0.3-0.9-0.5-1.5-0.5-1.5s-0.2,0.1-0.4,0.3c-0.2,0.2-0.5,0.5-0.9,0.8c-0.7,0.7-1.5,1.6-2.3,2.6c-0.8,1-1.4,2-1.9,2.8
			c-0.4,0.7-0.7,1.2-0.7,1.3C41.9,65.5,44.7,66,47.1,67.1L47.1,67.1z"/>
		<path class="st1" d="M63.1,102c-0.3-0.9-0.9-2.1-1.5-3.1c-0.6-1.1-1.3-2.1-1.8-2.8c-0.2-0.3-0.4-0.6-0.6-0.8c0,0,0-0.1,0-0.2
			c-1,2.5-2.4,4.8-4.3,6.8c0.2,0,0.3,0.1,0.5,0.2c0.9,0.3,2,0.6,3.3,0.9c0.6,0.1,1.2,0.2,1.8,0.3c0.6,0.1,1.1,0.1,1.6,0.2
			c0.9,0.1,1.6,0.1,1.6,0.1s0-0.2-0.2-0.4C63.4,102.9,63.2,102.5,63.1,102L63.1,102z"/>
		<path class="st1" d="M38.9,109c0.2,0,0.5,0,0.7,0c0,0.1,0.1,0.1,0.1,0.2c0.4,0.8,1,1.9,1.7,2.9c0.7,1,1.4,2,2.1,2.7
			c0.6,0.7,1,1.2,1,1.2l0.2-0.4c0.1-0.2,0.3-0.6,0.5-1s0.4-1,0.5-1.5c0.2-0.5,0.3-1.2,0.5-1.7c0.2-0.5,0.3-1.2,0.4-1.7
			c0.1-0.5,0.2-1,0.3-1.5c0-0.2,0.1-0.4,0.1-0.7C44.6,108.4,41.8,109,38.9,109L38.9,109z"/>
		<path class="st1" d="M55.2,106.6c-0.1-0.6-0.2-1.2-0.3-1.8c0-0.3-0.1-0.5-0.2-0.8c0-0.3-0.1-0.5-0.2-0.7c-0.1-0.3-0.2-0.5-0.2-0.8
			c-1.8,1.9-4,3.4-6.3,4.5c0.1,0.1,0.2,0.2,0.3,0.2c0.3,0.3,0.8,0.7,1.2,1c0.4,0.3,1,0.7,1.4,1c0.5,0.3,1,0.7,1.5,1
			c0.5,0.3,1,0.5,1.4,0.8c0.9,0.4,1.4,0.7,1.4,0.7s0-0.7,0-1.6c0-0.5,0-1,0-1.6C55.3,107.8,55.3,107.2,55.2,106.6L55.2,106.6z"/>
		<path class="st1" d="M67,91.7c-0.7-0.7-1.6-1.5-2.6-2.3c-1-0.8-2-1.4-2.8-1.9c-0.5-0.3-0.9-0.5-1-0.6c0-0.1,0-0.2,0-0.3
			c0.2-0.1,0.5-0.2,0.8-0.4c0.8-0.4,1.9-1,2.9-1.7c1-0.7,2-1.4,2.7-2.1c0.7-0.6,1.2-1,1.2-1s-0.2-0.1-0.4-0.2s-0.6-0.3-1-0.5
			c-0.4-0.2-1-0.4-1.5-0.5c-0.5-0.2-1.2-0.3-1.8-0.5c-0.5-0.2-1.2-0.3-1.7-0.4c-0.5-0.1-1-0.2-1.5-0.3c-0.7-0.1-1.2-0.2-1.4-0.2
			c1.1,2.6,1.8,5.5,1.8,8.5c0,2.6-0.5,5.2-1.4,7.6c0.2,0,0.4,0,0.7,0c0.4,0,1-0.1,1.5-0.2c0.5-0.1,1.2-0.2,1.8-0.3
			c1.2-0.2,2.4-0.5,3.3-0.9c0.9-0.3,1.5-0.5,1.5-0.5s-0.1-0.1-0.3-0.3C67.6,92.4,67.4,92.1,67,91.7L67,91.7z"/>
		<path class="st1" d="M23.8,102.9c0,0.1,0,0.1-0.1,0.2c-0.3,0.9-0.6,2-0.9,3.3c-0.1,0.6-0.2,1.2-0.3,1.8c-0.1,0.5-0.1,1.1-0.2,1.6
			c-0.1,0.9-0.1,1.6-0.1,1.6s0.2,0,0.4-0.2c0.3-0.1,0.7-0.2,1.1-0.4c0.9-0.3,2.1-0.9,3.1-1.5c1.1-0.6,2.1-1.3,2.8-1.8
			c0.1-0.1,0.2-0.2,0.3-0.3C27.7,106.1,25.6,104.6,23.8,102.9L23.8,102.9z"/>
		<path class="st1" d="M23.1,102.1L23.1,102.1c-1.8-1.9-3.2-4-4.2-6.4c-0.1,0.1-0.1,0.2-0.2,0.2c-0.3,0.3-0.7,0.8-1,1.2
			c-0.3,0.4-0.7,1-1,1.4c-0.3,0.5-0.7,1-1,1.5c-0.3,0.5-0.5,1-0.8,1.4c-0.4,0.9-0.7,1.4-0.7,1.4s0.7,0,1.6,0c0.5,0,1,0,1.6,0
			c0.6,0,1.2-0.1,1.8-0.2c0.6-0.1,1.2-0.2,1.8-0.3c0.3,0,0.5-0.1,0.8-0.2c0.2,0,0.5-0.1,0.7-0.2C22.8,102.2,22.9,102.2,23.1,102.1
			L23.1,102.1z"/>
		<path class="st1" d="M31.2,107.5c0,0,0,0.1,0,0.2c0,0.4,0.1,1,0.2,1.5s0.2,1.2,0.3,1.8c0.2,1.2,0.5,2.4,0.9,3.3
			c0.3,0.9,0.5,1.5,0.5,1.5s0.1-0.1,0.3-0.3c0.2-0.2,0.5-0.5,0.9-0.8c0.7-0.7,1.5-1.6,2.3-2.6c0.8-1,1.4-2,1.9-2.8
			c0.1-0.2,0.2-0.3,0.2-0.4C36,108.9,33.4,108.4,31.2,107.5L31.2,107.5z"/>
	</g>
	<ellipse class="st1" cx="39.1" cy="86.8" rx="20.4" ry="20.4"/>
</g>
<path class="st2" d="M96.7,86.3c-4.4,0-8.8,1.1-13.2,3.3c-4.4-6.6-12.1-11-20.9-11s-16.5,4.4-20.9,11c-4.4-3.3-8.8-4.4-14.3-4.4
	C13,85.2,0.9,97.3,0.9,111.7s12.1,26.5,26.4,26.5c3.3,0,6.6-1.1,9.9-2.2c4.4,7.7,13.2,13.2,23.1,13.2s18.7-5.5,23.1-14.3
	c4.4,2.2,8.8,4.4,14.3,4.4c14.3,0,26.4-12.1,26.4-26.5C123.2,98.4,111,86.3,96.7,86.3L96.7,86.3L96.7,86.3z"/>
</svg>
