<?xml version="1.0" encoding="utf-8"?>
<!-- Generator: Adobe Illustrator 26.4.1, SVG Export Plug-In . SVG Version: 6.00 Build 0)  -->
<svg version="1.1" id="_лой_1" xmlns="http://www.w3.org/2000/svg" xmlns:xlink="http://www.w3.org/1999/xlink" x="0px" y="0px"
	 viewBox="0 0 150 150" style="enable-background:new 0 0 150 150;" xml:space="preserve">
<style type="text/css">
	.st0{fill:#8DC6FF;}
	.st1{fill:#FFCA00;}
	.st2{fill:#BEE3FC;}
</style>
<path class="st0" d="M123.0999985,7.5c-4.3000031,0-8.5999985,1.1000004-12.9000015,3.1999998
	C105.9000015,4.3000002,98.4000015,0,89.8000031,0S73.6999969,4.3000002,69.4000015,10.8000002
	C65.0999985,7.6000004,60.8000031,6.5,55.4000015,6.5c-14,0-25.7999992,11.8999996-25.7999992,25.9000015
	s11.7999992,25.7999992,25.7999992,25.7999992c3.2000008,0,6.4000015-1.0999985,9.6999969-2.2000008
	C69.4000015,63.5,78,68.9000015,87.6999969,68.9000015S106,63.5,110.2999954,54.9000015
	c4.3000031,2.2000008,8.5999985,4.2999992,14,4.2999992c13.9999924,0,25.7999954-11.7999992,25.7999954-25.7999992
	C148.8999939,19.3999996,137.1000061,7.5,123.0999985,7.5L123.0999985,7.5L123.0999985,7.5z"/>
<g>
	<ellipse class="st1" cx="39.0999985" cy="86.8000031" rx="20.4000015" ry="20.4000015"/>
</g>
<path class="st2" d="M96.6999969,86.3000031c-4.4000015,0-8.8000031,1.0999985-13.1999969,3.3000031
	c-4.4000015-6.5999985-12.0999985-11-20.9000015-11s-16.5,4.4000015-20.9000015,11
	c-4.4000015-3.3000031-8.7999992-4.4000015-14.2999992-4.4000015C13,85.1999969,0.9,97.3000031,0.9,111.6999969
	s12.1000004,26.5,26.3999996,26.5c3.2999992,0,6.5999985-1.1000061,9.8999977-2.1999969
	c4.4000015,7.6999969,13.2000008,13.1999969,23.0999985,13.1999969s18.7000046-5.5,23.0999985-14.3000031
	c4.4000015,2.1999969,8.8000031,4.3999939,14.3000031,4.3999939c14.3000031,0,26.4000015-12.0999985,26.4000015-26.5
	C123.1999969,98.4000015,111,86.3000031,96.6999969,86.3000031L96.6999969,86.3000031L96.6999969,86.3000031z"/>
</svg>
