<?xml version="1.0" encoding="UTF-8"?><svg id="_лой_1" xmlns="http://www.w3.org/2000/svg" viewBox="0 0 142.48 150"><defs><style>.cls-1{fill:#ffca00;}.cls-2{fill:#8dc6ff;}</style></defs><path class="cls-1" d="M100.4,134.83c-41.07-6.25-69.29-44.61-63.04-85.68C40.48,28.68,51.57,11.41,67,0,33.94,3.62,6.11,29.01,.87,63.45c-6.25,41.07,21.97,79.43,63.04,85.68,20.6,3.14,40.52-2.41,56.05-13.89-6.36,.7-12.92,.6-19.55-.41Z"/><path class="cls-2" d="M116.12,70.89c-4.22,0-8.44,1.06-12.66,3.17-4.22-6.34-11.61-10.55-20.05-10.55s-15.83,4.22-20.05,10.55c-4.22-3.17-8.44-4.22-13.72-4.22-13.72,0-25.32,11.61-25.32,25.33s11.61,25.32,25.32,25.32c3.17,0,6.34-1.06,9.49-2.11,4.22,7.39,12.66,12.66,22.16,12.66s17.94-5.28,22.16-13.72c4.22,2.11,8.44,4.22,13.72,4.22,13.72,0,25.32-11.61,25.32-25.32-1.06-13.72-12.66-25.32-26.38-25.32h.02Z"/></svg>