<?xml version="1.0" encoding="UTF-8"?><svg id="_лой_1" xmlns="http://www.w3.org/2000/svg" viewBox="0 0 150 150"><defs><style>.cls-1{fill:#8dc6ff;}</style></defs><path class="cls-1" d="M116.54,9.33c-5.36,0-10.71,1.33-16.07,4-5.36-8-14.74-13.33-25.45-13.33s-20.09,5.33-25.45,13.32c-5.36-4-10.71-5.33-17.41-5.33C14.73,8,0,22.65,0,39.97s14.73,31.97,32.14,31.97c4.02,0,8.04-1.33,12.05-2.67,5.36,9.33,16.07,15.99,28.12,15.99s22.77-6.66,28.12-17.32c5.36,2.67,10.71,5.33,17.41,5.33,17.41,0,32.14-14.65,32.14-31.97-1.34-17.32-16.07-31.97-33.48-31.97h.02Z"/><path class="cls-1" d="M45.53,99.24c-2.42,8.91-8.17,13.05-13.49,11.63s-8.2-7.89-5.78-16.8,14.53-15.48,14.53-15.48c0,0,7.16,11.73,4.74,20.64h0Z"/><path class="cls-1" d="M76.56,109.92c-2.42,8.91-8.17,13.05-13.49,11.63s-8.2-7.89-5.78-16.8,14.53-15.48,14.53-15.48c0,0,7.16,11.73,4.74,20.64h0Z"/><path class="cls-1" d="M110.39,101.75c-2.42,8.91-8.17,13.05-13.49,11.63s-8.2-7.89-5.78-16.8c2.42-8.91,14.53-15.48,14.53-15.48,0,0,7.16,11.73,4.74,20.64h0Z"/><path class="cls-1" d="M92.35,133.06c-1.73,6.37-5.84,9.33-9.65,8.31s-5.86-5.64-4.13-12.01c1.73-6.37,10.39-11.07,10.39-11.07,0,0,5.12,8.38,3.39,14.76h0Z"/><path class="cls-1" d="M44.84,131.02c-1.73,6.37-5.84,9.33-9.65,8.31-3.8-1.02-5.86-5.64-4.13-12.01,1.73-6.37,10.39-11.07,10.39-11.07,0,0,5.12,8.38,3.39,14.76h0Z"/><path class="cls-1" d="M68,141.49c-1.73,6.37-5.84,9.33-9.65,8.31-3.8-1.02-5.86-5.64-4.13-12.01,1.73-6.37,10.39-11.07,10.39-11.07,0,0,5.12,8.38,3.39,14.76h0Z"/></svg>