<?xml version="1.0" encoding="UTF-8"?><svg id="_лой_1" xmlns="http://www.w3.org/2000/svg" viewBox="0 0 150 126.13"><defs><style>.cls-1{fill:#8dc6ff;}</style></defs><path class="cls-1" d="M116.52,9.38c-5.36,0-10.71,1.34-16.07,4.02C95.09,5.36,85.71,0,75,0s-20.09,5.36-25.45,13.39c-5.36-4.02-10.71-5.36-17.41-5.36C14.73,8.04,0,22.77,0,40.18s14.73,32.14,32.14,32.14c4.02,0,8.04-1.34,12.05-2.68,5.36,9.38,16.07,16.07,28.12,16.07s22.77-6.7,28.12-17.41c5.36,2.68,10.71,5.36,17.41,5.36,17.41,0,32.14-14.73,32.14-32.14-1.34-17.41-16.07-32.14-33.48-32.14Z"/><path class="cls-1" d="M45.52,99.76c-2.42,8.96-8.17,13.12-13.49,11.69s-8.2-7.93-5.78-16.89,14.53-15.56,14.53-15.56c0,0,7.16,11.79,4.74,20.75Z"/><path class="cls-1" d="M74.5,114.16c-2.42,8.96-8.17,13.12-13.49,11.69s-8.2-7.93-5.78-16.89,14.53-15.56,14.53-15.56c0,0,7.16,11.79,4.74,20.75Z"/><path class="cls-1" d="M110.38,102.29c-2.42,8.96-8.17,13.12-13.49,11.69s-8.2-7.93-5.78-16.89,14.53-15.56,14.53-15.56c0,0,7.16,11.79,4.74,20.75Z"/></svg>