<?xml version="1.0" encoding="UTF-8"?><svg id="_лой_1" xmlns="http://www.w3.org/2000/svg" viewBox="0 0 120 120"><defs><style>.cls-1{fill:#8dc6ff;}</style></defs><path class="cls-1" d="M120,58.76h-10.87l7.33-7.33-1.64-1.64-8.97,8.97h-9.26l7.03-7.03-1.64-1.64-8.67,8.67h-10.24l7.33-7.33-1.64-1.64-8.97,8.97h-10.03c-.23-1.9-.97-3.63-2.08-5.05l6.81-6.81h12.9v-2.32h-10.58l7.24-7.24h12.47v-2.32h-10.15l6.54-6.54h12.9v-2.32h-10.58l7.65-7.65-1.64-1.64-7.68,7.68V14.17h-2.32v12.69l-6.54,6.54v-9.94h-2.32v12.26l-7.24,7.24v-10.37h-2.32v12.69l-6.78,6.78c-1.36-1.09-3.01-1.82-4.81-2.05v-9.17l8.97-8.97-1.64-1.64-7.33,7.33v-10.24l8.67-8.67-1.64-1.64-7.03,7.03V14.79l8.97-8.97-1.64-1.64-7.33,7.33V0h-2.32V11.46l-7.48-7.48-1.64,1.64,9.12,9.12v9.26l-7.18-7.18-1.64,1.64,8.82,8.82v10.24l-7.48-7.48-1.64,1.64,9.12,9.12v9.19c-1.86,.21-3.56,.95-4.96,2.07l-6.78-6.78v-12.69h-2.32v10.37l-7.24-7.24v-12.26h-2.32v9.94l-6.54-6.54V14.17h-2.32v10.37l-8.13-8.13-1.64,1.64,8.1,8.1H14.17v2.32h12.9l6.54,6.54h-10.15v2.32h12.47l7.24,7.24h-10.58v2.32h12.9l6.81,6.81c-1.11,1.42-1.85,3.15-2.08,5.05h-9.39l-8.97-8.97-1.64,1.64,7.33,7.33h-10.24l-8.67-8.67-1.64,1.64,7.03,7.03H14.79l-8.97-8.97-1.64,1.64,7.33,7.33H0v2.32H11.46l-7.48,7.48,1.64,1.64,9.12-9.12h9.26l-7.18,7.18,1.64,1.64,8.82-8.82h10.24l-7.48,7.48,1.64,1.64,9.12-9.12h9.41c.19,1.83,.87,3.51,1.9,4.92l-6.82,6.82h-12.69v2.32h10.37l-7.24,7.24h-12.26v2.32h9.94l-6.54,6.54H14.17v2.32h10.37l-8.13,8.13,1.64,1.64,8.1-8.1v10.58h2.32v-12.9l6.54-6.54v10.15h2.32v-12.47l7.24-7.24v10.58h2.32v-12.9l6.78-6.78c1.45,1.24,3.25,2.07,5.23,2.29v9.83l-9.12,9.12,1.64,1.64,7.48-7.48v10.24l-8.82,8.82,1.64,1.64,7.18-7.18v9.26l-9.12,9.12,1.64,1.64,7.48-7.48v10.82h2.32v-10.87l7.33,7.33,1.64-1.64-8.97-8.97v-9.26l7.03,7.03,1.64-1.64-8.67-8.67v-10.24l7.33,7.33,1.64-1.64-8.97-8.97v-9.81c1.92-.25,3.67-1.05,5.08-2.26l6.78,6.78v12.9h2.32v-10.58l7.24,7.24v12.47h2.32v-10.15l6.54,6.54v12.9h2.32v-10.58l7.65,7.65,1.64-1.64-7.68-7.68h10.37v-2.32h-12.69l-6.54-6.54h9.94v-2.32h-12.26l-7.24-7.24h10.37v-2.32h-12.69l-6.82-6.82c1.02-1.4,1.7-3.09,1.9-4.92h10.05l9.12,9.12,1.64-1.64-7.48-7.48h10.24l8.82,8.82,1.64-1.64-7.18-7.18h9.26l9.12,9.12,1.64-1.64-7.48-7.48h10.82v-2.32Z"/></svg>