<?xml version="1.0" encoding="UTF-8"?><svg id="_лой_1" xmlns="http://www.w3.org/2000/svg" viewBox="0 0 150 150"><defs><style>.cls-1{fill:#8dc6ff;}</style></defs><path class="cls-1" d="M150,73.46h-13.59l9.16-9.16-2.05-2.05-11.21,11.21h-11.58l8.79-8.79-2.05-2.05-10.84,10.84h-12.8l9.16-9.16-2.05-2.05-11.21,11.21h-12.54c-.29-2.38-1.21-4.54-2.6-6.31l8.51-8.51h16.13v-2.9h-13.23l9.05-9.05h15.59v-2.9h-12.69l8.18-8.18h16.13v-2.9h-13.23l9.56-9.56-2.05-2.05-9.6,9.6v-12.98h-2.9v15.87l-8.18,8.18v-12.43h-2.9v15.33l-9.05,9.05v-12.96h-2.9v15.87l-8.47,8.48c-1.7-1.36-3.76-2.28-6.01-2.56v-11.46l11.21-11.21-2.05-2.05-9.16,9.16v-12.8l10.84-10.84-2.05-2.05-8.79,8.79v-11.56l11.21-11.21-2.05-2.05-9.16,9.16V0h-2.9V14.33l-9.35-9.35-2.05,2.05,11.4,11.4v11.58l-8.98-8.98-2.05,2.05,11.02,11.03v12.8l-9.35-9.35-2.05,2.05,11.4,11.4v11.49c-2.33,.26-4.45,1.19-6.2,2.59l-8.47-8.48v-15.87h-2.9v12.96l-9.05-9.05v-15.33h-2.9v12.43l-8.18-8.18v-15.87h-2.9v12.96l-10.16-10.16-2.05,2.05,10.13,10.13h-13.24v2.9h16.12l8.18,8.18h-12.69v2.9h15.59l9.05,9.05h-13.23v2.9h16.13l8.51,8.51c-1.39,1.78-2.31,3.94-2.6,6.31h-11.74l-11.21-11.21-2.05,2.05,9.16,9.16h-12.8l-10.84-10.84-2.05,2.05,8.79,8.79h-11.55l-11.21-11.21-2.05,2.05,9.16,9.16H0v2.9H14.33l-9.35,9.35,2.05,2.05,11.4-11.4h11.58l-8.98,8.98,2.05,2.05,11.02-11.03h12.8l-9.35,9.35,2.05,2.05,11.4-11.4h11.76c.24,2.29,1.09,4.39,2.38,6.15l-8.52,8.53h-15.86v2.9h12.96l-9.05,9.05h-15.33v2.9h12.43l-8.18,8.18h-15.87v2.9h12.96l-10.16,10.16,2.05,2.05,10.13-10.13v13.23h2.9v-16.13l8.17-8.18v12.69h2.9v-15.59l9.05-9.05v13.23h2.9v-16.13l8.47-8.48c1.81,1.55,4.06,2.59,6.54,2.86v12.29l-11.4,11.4,2.05,2.05,9.35-9.35v12.8l-11.02,11.03,2.05,2.05,8.98-8.98v11.58l-11.4,11.4,2.05,2.05,9.35-9.35v13.53h2.9v-13.59l9.16,9.16,2.05-2.05-11.21-11.21v-11.58l8.79,8.79,2.05-2.05-10.84-10.84v-12.8l9.16,9.16,2.05-2.05-11.21-11.21v-12.26c2.4-.31,4.59-1.31,6.35-2.83l8.47,8.48v16.13h2.9v-13.23l9.05,9.05v15.59h2.9v-12.69l8.18,8.18v16.13h2.9v-13.23l9.56,9.56,2.05-2.05-9.6-9.6h12.96v-2.9h-15.86l-8.18-8.18h12.43v-2.9h-15.33l-9.05-9.05h12.96v-2.9h-15.86l-8.52-8.53c1.27-1.75,2.12-3.86,2.38-6.15h12.56l11.4,11.4,2.05-2.05-9.35-9.35h12.8l11.02,11.03,2.05-2.05-8.98-8.98h11.58l11.4,11.4,2.05-2.05-9.35-9.35h13.52v-2.9h.03Z"/></svg>