<?xml version="1.0" encoding="UTF-8"?><svg id="_лой_1" xmlns="http://www.w3.org/2000/svg" viewBox="0 0 150 134.69"><defs><style>.cls-1{fill:#ffca00;}.cls-2{fill:#8dc6ff;}</style></defs><g><g><path class="cls-1" d="M64.76,22.03c.56,1.39,1.43,3.22,2.37,4.91,.98,1.72,2.01,3.3,2.87,4.45,.38,.51,.7,.93,.95,1.24h0c1.76-3.88,4.22-7.39,7.22-10.34-.35-.12-.78-.27-1.29-.43-1.37-.45-3.2-.93-5.13-1.32-.96-.19-1.91-.34-2.84-.47-.92-.13-1.8-.22-2.54-.28-1.49-.12-2.52-.15-2.52-.15l.24,.66c.16,.42,.39,1.02,.67,1.72Z"/><path class="cls-1" d="M70.57,33.47c-.31,.02-.65,.04-1.04,.07-.72,.06-1.54,.15-2.43,.27-.89,.13-1.85,.28-2.81,.48-1.88,.39-3.84,.91-5.24,1.38-1.42,.46-2.39,.83-2.39,.83,0,0,.16,.19,.47,.52,.31,.33,.75,.79,1.28,1.33,1.05,1.07,2.56,2.42,4.07,3.62,1.57,1.21,3.12,2.27,4.36,3,.41,.25,.77,.45,1.07,.63-.01,.4-.03,.79-.03,1.2,0-4.73,.95-9.23,2.68-13.33h0Z"/><path class="cls-1" d="M77.19,14.82c.11,.96,.27,1.94,.43,2.81,.08,.44,.17,.86,.25,1.26,.1,.4,.18,.78,.27,1.13,.2,.8,.37,1.42,.49,1.81-.08,.08-.17,.16-.25,.24,3.14-3.04,6.86-5.49,10.98-7.16-.3-.27-.72-.64-1.23-1.07-.54-.46-1.2-.99-1.92-1.53-.71-.53-1.5-1.09-2.32-1.64-.82-.55-1.64-1.05-2.45-1.52-.8-.46-1.58-.89-2.24-1.23-1.33-.67-2.27-1.09-2.27-1.09,0,0-.08,1.01-.07,2.54,0,.76,.02,1.63,.07,2.56,.06,.94,.14,1.92,.25,2.89Z"/><path class="cls-1" d="M66.71,58.33c.88,.18,1.68,.34,2.4,.44,.36,.05,.68,.1,.97,.13-1.41-3.76-2.19-7.84-2.19-12.09v.04c-.2,.1-.41,.21-.65,.33-1.29,.65-2.92,1.6-4.55,2.69-1.62,1.08-3.18,2.3-4.34,3.27-1.13,.97-1.87,1.68-1.87,1.68,0,0,.23,.11,.63,.3,.4,.19,.98,.45,1.69,.74,.7,.29,1.52,.61,2.39,.92,.89,.31,1.83,.61,2.77,.87,.92,.27,1.89,.49,2.76,.68Z"/><path class="cls-1" d="M102.31,12.38s.09,0,.13,0c-.02,0-.04,0-.06,0-.18-.37-.45-.93-.8-1.62-.65-1.29-1.6-2.92-2.69-4.55-1.08-1.62-2.3-3.18-3.27-4.34-.97-1.13-1.68-1.87-1.68-1.87l-.3,.63c-.19,.4-.45,.98-.74,1.69-.29,.7-.61,1.52-.92,2.39-.31,.89-.61,1.83-.87,2.77-.27,.92-.49,1.89-.68,2.76-.18,.88-.34,1.68-.44,2.4-.15,1.03-.23,1.79-.26,2.13,3.9-1.53,8.14-2.38,12.59-2.38Z"/><path class="cls-1" d="M116.61,15.49c7.66,3.5,13.8,9.72,17.21,17.43,.27-.3,.65-.73,1.1-1.27,.46-.54,.99-1.2,1.53-1.92,.53-.71,1.09-1.5,1.64-2.32,.55-.82,1.05-1.64,1.52-2.45,.46-.8,.89-1.58,1.23-2.24,.67-1.33,1.09-2.27,1.09-2.27,0,0-1.01-.08-2.54-.07-.76,0-1.63,.02-2.56,.07-.94,.06-1.92,.14-2.89,.25-.96,.11-1.94,.27-2.81,.43-.44,.08-.86,.17-1.26,.25-.4,.1-.78,.18-1.13,.27-1.38,.35-2.26,.62-2.26,.62l.02,.02c-.06-.06-.12-.11-.17-.17,.14-.39,.35-.98,.59-1.74,.45-1.37,.93-3.2,1.32-5.13,.19-.96,.34-1.91,.47-2.84,.13-.92,.22-1.8,.28-2.54,.12-1.49,.15-2.52,.15-2.52,0,0-.24,.09-.66,.24-.42,.16-1.02,.39-1.72,.67-1.39,.56-3.22,1.43-4.91,2.37-1.72,.98-3.3,2.01-4.45,2.87-.57,.42-1.03,.78-1.35,1.03l-.5,.41s.19,.08,.51,.24c.16,.08,.35,.17,.56,.28Z"/><path class="cls-1" d="M115.33,14.93c-.02-.41-.05-1.06-.12-1.88-.06-.72-.15-1.54-.27-2.43-.13-.89-.28-1.85-.48-2.81-.39-1.88-.91-3.84-1.38-5.24-.46-1.43-.83-2.39-.83-2.39,0,0-.19,.16-.52,.47-.33,.31-.79,.75-1.33,1.28-1.07,1.05-2.42,2.56-3.62,4.07-1.21,1.57-2.27,3.12-3,4.36-.69,1.16-1.11,1.94-1.15,2.02,4.49,.04,8.78,.94,12.7,2.55Z"/><path class="cls-1" d="M140.47,70.25c-.56-1.39-1.43-3.22-2.37-4.91-.98-1.72-2.01-3.3-2.87-4.45-.39-.53-.72-.96-.97-1.27,.03-.08,.06-.15,.09-.23-1.58,4.01-3.89,7.66-6.77,10.77,.24,.08,.49,.16,.78,.25,1.37,.45,3.2,.93,5.13,1.32,.95,.19,1.91,.34,2.84,.47,.92,.13,1.8,.22,2.54,.28,1.49,.12,2.52,.15,2.52,.15l-.24-.66c-.16-.42-.39-1.02-.67-1.72Z"/><path class="cls-1" d="M102.31,81.23c.39,0,.78-.02,1.17-.03,.05,.1,.1,.21,.16,.32,.65,1.29,1.6,2.92,2.69,4.55,1.08,1.62,2.3,3.18,3.27,4.34,.97,1.13,1.68,1.87,1.68,1.87l.3-.63c.19-.4,.45-.98,.74-1.69,.29-.7,.61-1.52,.92-2.39,.31-.89,.61-1.83,.87-2.77,.27-.92,.49-1.89,.68-2.76,.19-.88,.34-1.68,.44-2.4,.05-.37,.1-.7,.13-.99-4.03,1.65-8.44,2.57-13.06,2.57Z"/><path class="cls-1" d="M128.05,77.45c-.11-.96-.27-1.94-.43-2.81-.08-.44-.17-.86-.25-1.26-.1-.4-.18-.78-.27-1.13-.12-.48-.23-.89-.32-1.23-2.89,2.92-6.3,5.32-10.08,7.06,.13,.11,.27,.23,.42,.36,.54,.46,1.2,.99,1.92,1.53,.71,.53,1.5,1.09,2.32,1.64,.82,.55,1.64,1.05,2.45,1.52,.8,.46,1.58,.89,2.24,1.23,1.33,.67,2.27,1.09,2.27,1.09,0,0,.08-1.01,.07-2.54,0-.76-.02-1.63-.07-2.56-.06-.94-.14-1.92-.25-2.88Z"/><path class="cls-1" d="M146.82,53.92c-1.05-1.07-2.56-2.42-4.07-3.62-1.57-1.21-3.12-2.27-4.36-3-.73-.44-1.31-.76-1.66-.96,0-.2,0-.4-.01-.59,.34-.17,.78-.38,1.28-.64,1.29-.65,2.92-1.6,4.55-2.69,1.62-1.08,3.18-2.3,4.34-3.27,1.13-.97,1.87-1.68,1.87-1.68,0,0-.23-.11-.63-.3-.4-.19-.98-.45-1.69-.74-.7-.29-1.52-.61-2.39-.92-.89-.31-1.83-.61-2.77-.87-.92-.27-1.89-.49-2.76-.68-.88-.18-1.68-.34-2.4-.44-1.06-.15-1.83-.24-2.16-.27,1.79,4.16,2.78,8.74,2.78,13.56,0,4.22-.76,8.27-2.16,12.01,.32-.02,.7-.05,1.12-.08,.72-.06,1.54-.15,2.43-.27,.89-.13,1.85-.28,2.81-.48,1.88-.39,3.84-.91,5.24-1.38,1.42-.46,2.39-.83,2.39-.83,0,0-.16-.19-.47-.52-.31-.33-.75-.79-1.28-1.33Z"/><path class="cls-1" d="M78.43,71.58c-.03,.1-.06,.2-.1,.3-.45,1.37-.93,3.2-1.32,5.13-.19,.95-.34,1.91-.47,2.84-.13,.92-.22,1.8-.28,2.54-.12,1.49-.15,2.52-.15,2.52,0,0,.24-.09,.66-.24,.42-.16,1.02-.39,1.72-.67,1.39-.56,3.22-1.43,4.91-2.37,1.72-.98,3.3-2.01,4.45-2.87,.21-.16,.41-.3,.59-.44-3.74-1.65-7.12-3.94-10.02-6.73Z"/><path class="cls-1" d="M77.28,70.42h0c-2.78-2.94-5.05-6.37-6.65-10.15-.1,.11-.2,.23-.31,.36-.46,.54-.99,1.2-1.53,1.92-.53,.71-1.09,1.5-1.64,2.32-.55,.82-1.05,1.64-1.52,2.45-.46,.8-.89,1.58-1.23,2.24-.67,1.33-1.09,2.27-1.09,2.27,0,0,1.01,.08,2.54,.07,.76,0,1.63-.02,2.56-.07,.94-.06,1.92-.14,2.89-.25,.96-.11,1.94-.27,2.81-.43,.44-.08,.86-.17,1.26-.25,.4-.1,.78-.18,1.13-.27,.28-.07,.54-.14,.77-.2Z"/><path class="cls-1" d="M90,78.95c0,.09,.01,.18,.02,.28,.06,.72,.15,1.54,.27,2.43,.13,.89,.28,1.85,.48,2.81,.39,1.88,.91,3.84,1.38,5.24,.46,1.42,.83,2.39,.83,2.39,0,0,.19-.16,.52-.47,.33-.31,.79-.75,1.33-1.28,1.07-1.05,2.42-2.56,3.62-4.07,1.21-1.57,2.27-3.12,3-4.36,.15-.25,.28-.48,.41-.69-4.18-.05-8.17-.85-11.86-2.26Z"/></g><circle class="cls-1" cx="102.23" cy="46.71" r="31.18"/></g><path class="cls-2" d="M116.52,58.35c-5.36,0-10.71,1.34-16.07,4.02-5.36-8.04-14.73-13.39-25.45-13.39s-20.09,5.36-25.45,13.39c-5.36-4.02-10.71-5.36-17.41-5.36C14.73,57.01,0,71.75,0,89.16s14.73,32.14,32.14,32.14c4.02,0,8.04-1.34,12.05-2.68,5.36,9.38,16.07,16.07,28.12,16.07s22.77-6.7,28.12-17.41c5.36,2.68,10.71,5.36,17.41,5.36,17.41,0,32.14-14.73,32.14-32.14-1.34-17.41-16.07-32.14-33.48-32.14Z"/></svg>