<?xml version="1.0" encoding="utf-8"?>
<!-- Generator: Adobe Illustrator 26.3.1, SVG Export Plug-In . SVG Version: 6.00 Build 0)  -->
<!DOCTYPE svg PUBLIC "-//W3C//DTD SVG 1.1//EN" "http://www.w3.org/Graphics/SVG/1.1/DTD/svg11.dtd" [
	<!ENTITY ns_extend "http://ns.adobe.com/Extensibility/1.0/">
	<!ENTITY ns_ai "http://ns.adobe.com/AdobeIllustrator/10.0/">
	<!ENTITY ns_graphs "http://ns.adobe.com/Graphs/1.0/">
	<!ENTITY ns_vars "http://ns.adobe.com/Variables/1.0/">
	<!ENTITY ns_imrep "http://ns.adobe.com/ImageReplacement/1.0/">
	<!ENTITY ns_sfw "http://ns.adobe.com/SaveForWeb/1.0/">
	<!ENTITY ns_custom "http://ns.adobe.com/GenericCustomNamespace/1.0/">
	<!ENTITY ns_adobe_xpath "http://ns.adobe.com/XPath/1.0/">
]>
<svg version="1.1" id="_лой_1" xmlns:x="&ns_extend;" xmlns:i="&ns_ai;" xmlns:graph="&ns_graphs;"
	 xmlns="http://www.w3.org/2000/svg" xmlns:xlink="http://www.w3.org/1999/xlink" x="0px" y="0px" viewBox="0 0 11.2247839 10"
	 style="enable-background:new 0 0 11.2247839 10;" xml:space="preserve">
<style type="text/css">
	.st0{fill:#FFCA00;}
</style>
<metadata>
	<sfw  xmlns="&ns_sfw;">
		<slices></slices>
		<sliceSourceBounds  bottomLeftOrigin="true" height="6.8900893" width="6.8900846" x="35.5049584" y="31.2549561">
			</sliceSourceBounds>
	</sfw>
</metadata>
<g>
	<path class="st0" d="M2.7860308,3.1996636C2.8275585,3.3035548,2.8927979,3.4400501,2.962656,3.5660789
		C3.0354977,3.6944404,3.112752,3.8123536,3.1771247,3.8981004c0.02826,0.0383263,0.0523603,0.069427,0.0706849,0.0926421
		C3.2477651,3.9908383,3.2477205,3.9909298,3.247683,3.9910257c0.1313899-0.2902102,0.3147204-0.5517437,0.5387428-0.7724004
		C3.7603745,3.2095778,3.7278967,3.1986167,3.6902521,3.1865711C3.5878763,3.1530862,3.4516711,3.1173174,3.307374,3.0883551
		C3.2360685,3.0743656,3.1644118,3.063107,3.0954883,3.0536122C3.0264525,3.043998,2.961431,3.0371192,2.9061644,3.0329924
		C2.7947762,3.0241673,2.7180674,3.022043,2.7180674,3.022043s0.0063918,0.0179217,0.01758,0.0492849
		C2.7474351,3.1028152,2.7645535,3.1474416,2.7860308,3.1996636z"/>
	<path class="st0" d="M3.2193763,4.0543003C3.1965737,4.055717,3.170691,4.0575113,3.1417263,4.0598578
		C3.0879843,4.0640292,3.0263777,4.0707111,2.9603186,4.0801873c-0.0662208,0.0093756-0.1381631,0.0211468-0.209759,0.0355015
		C2.61008,4.1448574,2.4639373,4.1835351,2.3589995,4.2187371C2.2526,4.253407,2.1808496,4.2809715,2.1808496,4.2809715
		s0.0122352,0.0142188,0.0354314,0.038825c0.0229666,0.0245452,0.0558944,0.0591683,0.0957615,0.0991249
		c0.0780742,0.0799432,0.1912165,0.1808524,0.3039327,0.2703023c0.1170959,0.0904942,0.232796,0.1696548,0.3255901,0.2243104
		c0.0306675,0.0183997,0.0574846,0.0339465,0.080107,0.0468163C3.0206559,4.9900532,3.0194144,5.0196972,3.0194144,5.049643
		c0-0.3529339,0.0712469-0.6891994,0.1999619-0.9953523V4.0543003z"/>
	<path class="st0" d="M3.7136893,2.6618576c0.0081365,0.0717177,0.0205145,0.1446555,0.0324428,0.2101805
		c0.0061038,0.0329535,0.0123875,0.0644455,0.0186691,0.0940332c0.0070965,0.029876,0.0138042,0.0581217,0.019999,0.0842011
		c0.0149615,0.0596673,0.0279906,0.1060927,0.0364504,0.1351488C3.8150253,3.1913304,3.8088467,3.1972816,3.8026145,3.203186
		c0.2346485-0.2271559,0.512284-0.4099081,0.8197577-0.5349462c-0.0223951-0.0201561-0.0533996-0.047575-0.0918312-0.079936
		C4.4900246,2.5542872,4.4411192,2.5142605,4.387445,2.4737959c-0.05336-0.039886-0.112154-0.0815661-0.1730275-0.1221478
		C4.1532111,2.3103709,4.0916348,2.2733212,4.0316277,2.2384496C3.9719205,2.2040346,3.913806,2.1719151,3.8641744,2.1468451
		C3.7647848,2.0966139,3.6948144,2.0656748,3.6948144,2.0656748S3.6891253,2.1413412,3.6897531,2.2554462
		c0.0001945,0.0568054,0.0011499,0.1217029,0.0049138,0.190994C3.6989715,2.5165112,3.7053585,2.5899668,3.7136893,2.6618576z"/>
	<path class="st0" d="M2.9316278,5.9101748c0.0659699,0.0138092,0.1256304,0.0250535,0.1791334,0.032527
		c0.0265901,0.0038719,0.0507886,0.0071344,0.0721698,0.009851C3.0774705,5.671587,3.0194144,5.3674483,3.0194144,5.049643
		c0,0.0009298,0.0000679,0.0018458,0.0000679,0.0027709C3.0044017,5.059958,2.9884939,5.0679817,2.9710758,5.0769734
		C2.8751152,5.1257358,2.7527821,5.1967015,2.6310163,5.2781343C2.5099714,5.3588924,2.3937492,5.4497967,2.307281,5.5226479
		c-0.084522,0.0724435-0.1399314,0.125155-0.1399314,0.125155S2.184489,5.6559839,2.2144868,5.6702919
		c0.0295246,0.0141602,0.0734344,0.0335903,0.1260076,0.0552549c0.0524421,0.0217066,0.1133859,0.0456266,0.1781499,0.068954
		c0.0662088,0.0229969,0.1368959,0.0452046,0.2065713,0.0650659C2.7941508,5.8796992,2.8661587,5.8962321,2.9316278,5.9101748z"/>
	<path class="st0" d="M5.5897508,2.4793069c0.0033326,0,0.0066071,0.0002389,0.0099401,0.0002506
		C5.5982175,2.4795201,5.5967488,2.4794497,5.5952687,2.4794452c-0.0131183-0.0277071-0.0332861-0.0692935-0.0598478-0.120759
		C5.4866586,2.2627254,5.4156923,2.1403925,5.3342576,2.0186267c-0.0807605-0.1210495-0.1716599-0.237267-0.2445111-0.3237399
		C5.017303,1.6103696,4.9645867,1.5549554,4.9645867,1.5549554S4.956408,1.5720996,4.9420977,1.6020973
		C4.9279375,1.6316218,4.9085097,1.6755316,4.8868427,1.7281002C4.8651361,1.7805423,4.8412161,1.8414861,4.8178935,1.9062548
		C4.7948942,1.972459,4.7726841,2.0431507,4.7528276,2.1128213C4.7326927,2.1817565,4.7161574,2.2537646,4.7022171,2.3192382
		C4.6884055,2.3852081,4.6771612,2.4448686,4.6696877,2.4983716C4.658504,2.5751858,4.6524286,2.6319208,4.6499224,2.6573772
		C4.9411139,2.542881,5.2579165,2.4793069,5.5897508,2.4793069z"/>
	<path class="st0" d="M6.6568794,2.7114236c0.571661,0.2613344,1.0306249,0.7257621,1.2847714,1.3013556
		C7.9619708,3.9902294,7.990458,3.958091,8.024086,3.9181511C8.0581026,3.877635,8.098134,3.8287296,8.1385937,3.7750556
		C8.178484,3.7216978,8.2201595,3.6629016,8.260746,3.6020255C8.3020229,3.540817,8.3390684,3.4792454,8.3739443,3.4192336
		c0.0344152-0.0597026,0.0665283-0.1178172,0.0916023-0.1674488c0.0502338-0.0993943,0.0811682-0.1693599,0.0811682-0.1693599
		S8.4710531,3.0767357,8.356946,3.0773635C8.3001423,3.0775578,8.2352409,3.0785089,8.1659517,3.0822773
		C8.0958786,3.0865819,8.0224228,3.0929689,7.950532,3.1012974C7.8788142,3.1094363,7.8058763,3.1218121,7.7403536,3.133738
		c-0.0329556,0.0061035-0.0644474,0.012392-0.0940309,0.0186689c-0.0298805,0.0071013-0.058126,0.013809-0.0842009,0.0200016
		C7.4588866,3.1982911,7.3935394,3.2188547,7.3935394,3.2188547s0.0006909,0.0007825,0.0011945,0.0013561
		C7.3904972,3.2160256,7.386075,3.2120368,7.381803,3.2078843C7.3921528,3.1790905,7.4076762,3.134567,7.4258184,3.0778625
		c0.0334897-0.102376,0.0692558-0.2385833,0.0982208-0.3828781c0.0139847-0.0713055,0.0252481-0.1429667,0.0347404-0.2118857
		C7.5683918,2.4140582,7.5752726,2.3490415,7.579402,2.2937748c0.0088248-0.1113882,0.0109448-0.188097,0.0109448-0.188097
		S7.5724273,2.1120696,7.5410619,2.1232531c-0.0314827,0.0117924-0.0761142,0.0289063-0.128336,0.0503833
		C7.3088398,2.215169,7.1723442,2.2804084,7.0463152,2.3502617C6.917954,2.4231081,6.800036,2.5003579,6.7142892,2.5647352
		c-0.042685,0.031471-0.0769825,0.0582085-0.1007013,0.0770319C6.5898509,2.6612744,6.5762806,2.67243,6.5762806,2.67243
		S6.590673,2.6780417,6.614696,2.6905251C6.6263361,2.6965396,6.6406651,2.7034605,6.6568794,2.7114236z"/>
	<path class="st0" d="M6.5614786,2.6699567c-0.0013423-0.0304496-0.0039468-0.0789781-0.0089469-0.14062
		C6.5483603,2.4755948,6.5416832,2.4139857,6.5322022,2.347929C6.5228314,2.2817035,6.5110555,2.2097611,6.4967051,2.13817
		C6.4675364,1.9976882,6.4288592,1.8515478,6.3936524,1.7466098C6.3589873,1.6402056,6.331418,1.5684552,6.331418,1.5684552
		S6.3172016,1.580695,6.292593,1.6038913C6.2680526,1.626858,6.2334247,1.6597856,6.1934681,1.6996506
		C6.1135249,1.777727,6.0126204,1.8908647,5.9231658,2.0035856C5.8326693,2.1206815,5.753511,2.2363768,5.6988602,2.3291709
		c-0.051826,0.0863745-0.0826788,0.1447093-0.0858474,0.1507263C5.948463,2.4828856,6.2684274,2.5501626,6.5614786,2.6699567z"/>
	<path class="st0" d="M8.4387531,6.8003364C8.3972225,6.6964502,8.3319817,6.5599499,8.2621279,6.4339256
		c-0.0728445-0.1283612-0.1500959-0.2462792-0.214469-0.332026C8.018465,6.0623088,7.9936385,6.0303249,7.9751334,6.0069203
		C7.9773865,6.0013061,7.9795341,5.995636,7.9817944,5.9900265C7.8638625,6.2897434,7.6916146,6.5619922,7.4765997,6.7944064
		c0.0176806,0.0059395,0.0367808,0.0122561,0.0579324,0.0190225c0.1023707,0.0334897,0.2385783,0.0692558,0.3828778,0.0982208
		C7.9887152,6.9256344,8.0603724,6.936893,8.1292953,6.9463902c0.0690355,0.0096121,0.134057,0.0164909,0.1893196,0.0206175
		c0.1113901,0.0088253,0.188097,0.0109491,0.188097,0.0109491S8.5003242,6.9600353,8.4891367,6.9286723
		C8.4773483,6.8971848,8.4602299,6.8525581,8.4387531,6.8003364z"/>
	<path class="st0" d="M5.5897508,7.6199794c0.0293698,0,0.0584474-0.0012388,0.0875878-0.0022154
		C5.6812592,7.6254764,5.6851258,7.6331096,5.689363,7.6413183c0.0487623,0.0959563,0.1197281,0.2182913,0.2011633,0.3400598
		c0.0807605,0.1210446,0.1716599,0.2372622,0.2445111,0.3237348c0.0724435,0.0845222,0.125155,0.1399317,0.125155,0.1399317
		s0.0081787-0.0171394,0.0224938-0.0471373c0.0141554-0.0295286,0.0335855-0.0734386,0.0552549-0.1260071
		C6.3596478,8.2194576,6.383563,8.158514,6.4068904,8.0937452C6.4298873,8.0275412,6.452095,7.9568539,6.4719515,7.8871784
		c0.0201397-0.0689349,0.036675-0.1409431,0.0506129-0.2064166c0.013814-0.0659652,0.0250583-0.1256304,0.0325317-0.1791334
		C6.5590663,7.4743428,6.5623779,7.4496713,6.5651417,7.427887C6.2643027,7.5514026,5.935101,7.6199794,5.5897508,7.6199794z"/>
	<path class="st0" d="M7.5110946,7.3381472c-0.0081367-0.0717225-0.0205169-0.1446605-0.032443-0.2101855
		c-0.0061035-0.0329533-0.012392-0.064445-0.0186687-0.0940285C7.4528861,7.0040526,7.4461784,6.9758072,7.439981,6.9497323
		C7.4310741,6.9141955,7.4228835,6.8835559,7.4158549,6.8581161C7.199976,7.0760865,6.9451995,7.2551894,6.6630111,7.3850899
		C6.6728477,7.3935566,6.6831837,7.4023862,6.6942406,7.411696C6.7347593,7.445713,6.7836647,7.485744,6.8373389,7.5262041
		c0.0533576,0.039886,0.112154,0.0815659,0.1730251,0.1221523c0.0612087,0.0412726,0.1227851,0.0783224,0.1827917,0.1131988
		c0.0597029,0.03441,0.1178174,0.0665298,0.1674538,0.0916042c0.0993896,0.0502315,0.1693597,0.0811658,0.1693597,0.0811658
		s0.0056844-0.0756664,0.0050616-0.1897717C7.5348363,7.6877484,7.5338807,7.6228509,7.530117,7.5535598
		C7.5258074,7.4834886,7.5194254,7.4100332,7.5110946,7.3381472z"/>
	<path class="st0" d="M8.9127388,5.5810785C8.8346672,5.5011353,8.7215252,5.4002304,8.6088037,5.3107762
		C8.4917126,5.2202821,8.3760128,5.1411214,8.2832184,5.0864658c-0.054512-0.0327029-0.0977383-0.0569787-0.1240091-0.0713944
		C8.1590147,5.0002856,8.1585369,4.985568,8.1580915,4.9708433c0.0256577-0.0124087,0.0579767-0.028389,0.0956163-0.047812
		c0.0959558-0.0487628,0.2182913-0.1197286,0.3400555-0.2011657c0.1210489-0.0807581,0.2372713-0.1716623,0.3237391-0.2445135
		c0.0845222-0.0724387,0.1399317-0.125155,0.1399317-0.125155s-0.0171394-0.0081787-0.047142-0.0224891
		c-0.02952-0.0141554-0.0734291-0.0335879-0.1260023-0.0552549c-0.0524426-0.0217066-0.1133814-0.0456266-0.1781502-0.068954
		C8.6399307,4.1825023,8.5692434,4.1602945,8.499568,4.1404381C8.4306326,4.1203008,8.3586254,4.1037679,8.2931538,4.0898252
		c-0.0659676-0.0138092-0.1256332-0.0250535-0.1791315-0.032527c-0.0788345-0.0114837-0.1368771-0.0176201-0.161284-0.0199947
		C8.0860252,4.3480048,8.1600828,4.690135,8.1600828,5.049643c0,0.3153415-0.0570583,0.6172876-0.1609616,0.8964338
		c0.0242667-0.0014682,0.0521817-0.0033607,0.0839295-0.0059347C8.136795,5.9359708,8.1984043,5.9292889,8.2644653,5.9198127
		c0.0662203-0.0093756,0.1381674-0.0211468,0.209754-0.0354972c0.14048-0.0291686,0.2866268-0.0678458,0.3915653-0.1030526
		C8.9721813,5.746593,9.0439339,5.7190285,9.0439339,5.7190285S9.0316992,5.704812,9.0084982,5.6802034
		C8.9855289,5.655663,8.9526043,5.6210351,8.9127388,5.5810785z"/>
	<path class="st0" d="M3.8062868,6.8995972C3.8038676,6.9070215,3.8014855,6.9142518,3.7989607,6.9221377
		C3.7654757,7.0245132,3.729707,7.1607208,3.7007446,7.3050203C3.6867576,7.3763256,3.6755013,7.4479823,3.6660018,7.516901
		C3.6563921,7.5859418,3.6495087,7.6509633,3.6453819,7.7062254C3.6365569,7.8176179,3.6344373,7.8943219,3.6344373,7.8943219
		s0.0179169-0.0063915,0.0492802-0.0175748C3.7152047,7.8649592,3.759836,7.8478408,3.8120577,7.8263636
		c0.1038866-0.0415325,0.240382-0.1067719,0.366411-0.1766253c0.1283612-0.0728464,0.2462745-0.1500959,0.332026-0.2144737
		c0.0160246-0.0118136,0.0304356-0.0226855,0.0439825-0.033C4.2755208,7.2793202,4.0227256,7.1083045,3.8062868,6.8995972z"/>
	<path class="st0" d="M3.7203012,6.8126631l0.000035,0.0000305c-0.2073231-0.2197437-0.37673-0.4756045-0.4967535-0.7577462
		C3.216238,6.0635033,3.2086425,6.0724101,3.2006958,6.081851c-0.034019,0.0405188-0.0740457,0.0894194-0.1145055,0.1430936
		c-0.0398908,0.0533576-0.0815661,0.112154-0.1221526,0.1730299C2.9227605,6.4591832,2.8857155,6.5207591,2.8508391,6.5807662
		C2.8164241,6.6404691,2.7843094,6.6985836,2.7592347,6.74822c-0.050231,0.0993896-0.0811656,0.1693597-0.0811656,0.1693597
		S2.7537355,6.923264,2.8678358,6.9226365c0.0568054-0.0001898,0.1217074-0.0011454,0.190994-0.0049138
		c0.070071-0.0043049,0.1435313-0.0106916,0.2154174-0.0190201C3.3459649,6.8905683,3.4189026,6.8781881,3.4844277,6.866262
		c0.0329583-0.0061035,0.0644455-0.012392,0.0940332-0.0186687c0.029876-0.0070968,0.0581264-0.0138092,0.0842011-0.0200019
		C3.6836777,6.8223219,3.7026558,6.8173637,3.7203012,6.8126631z"/>
	<path class="st0" d="M4.6706734,7.450088C4.671196,7.4569244,4.671669,7.46348,4.6722522,7.4706635
		C4.6764188,7.5244098,4.6831007,7.5860143,4.6925769,7.652071c0.0093756,0.0662255,0.0211515,0.1381679,0.0354972,0.2097635
		c0.0291686,0.1404772,0.0678506,0.286622,0.1030569,0.3915606c0.0346656,0.1063995,0.0622277,0.1781492,0.0622277,0.1781492
		s0.0142212-0.0122347,0.0388274-0.0354357C4.9567313,8.3731441,4.9913545,8.3402147,5.031311,8.3003492
		C5.1112561,8.2222729,5.2121592,8.1091356,5.3016133,7.996419C5.3921123,7.879323,5.4712682,7.7636232,5.5259237,7.6708288
		c0.0112443-0.0187411,0.0212498-0.035799,0.0304756-0.0516973C5.2445807,7.6151524,4.94629,7.5556889,4.6706734,7.450088z"/>
</g>
<circle class="st0" cx="5.5832057" cy="5.0427876" r="2.3280768"/>
</svg>
