<?xml version="1.0" encoding="utf-8"?>
<!-- Generator: Adobe Illustrator 26.3.1, SVG Export Plug-In . SVG Version: 6.00 Build 0)  -->
<!DOCTYPE svg PUBLIC "-//W3C//DTD SVG 1.1//EN" "http://www.w3.org/Graphics/SVG/1.1/DTD/svg11.dtd" [
	<!ENTITY ns_extend "http://ns.adobe.com/Extensibility/1.0/">
	<!ENTITY ns_ai "http://ns.adobe.com/AdobeIllustrator/10.0/">
	<!ENTITY ns_graphs "http://ns.adobe.com/Graphs/1.0/">
	<!ENTITY ns_vars "http://ns.adobe.com/Variables/1.0/">
	<!ENTITY ns_imrep "http://ns.adobe.com/ImageReplacement/1.0/">
	<!ENTITY ns_sfw "http://ns.adobe.com/SaveForWeb/1.0/">
	<!ENTITY ns_custom "http://ns.adobe.com/GenericCustomNamespace/1.0/">
	<!ENTITY ns_adobe_xpath "http://ns.adobe.com/XPath/1.0/">
]>
<svg version="1.1" id="_лой_1" xmlns:x="&ns_extend;" xmlns:i="&ns_ai;" xmlns:graph="&ns_graphs;"
	 xmlns="http://www.w3.org/2000/svg" xmlns:xlink="http://www.w3.org/1999/xlink" x="0px" y="0px" viewBox="0 0 150 150"
	 style="enable-background:new 0 0 150 150;" xml:space="preserve">
<style type="text/css">
	.st0{fill:#FFCA00;}
</style>
<metadata>
	<sfw  xmlns="&ns_sfw;">
		<slices></slices>
		<sliceSourceBounds  bottomLeftOrigin="true" height="150" width="150" x="0" y="0"></sliceSourceBounds>
	</sfw>
</metadata>
<g>
	<g>
		<path class="st0" d="M13.3,35.7c0.9,2.3,2.3,5.3,3.8,8c1.6,2.8,3.3,5.4,4.7,7.2c0.6,0.8,1.1,1.6,1.6,2.1l0,0
			c2.9-6.3,6.8-12,11.7-16.8c-0.6-0.2-1.2-0.4-2.1-0.7c-2.3-0.7-5.2-1.6-8.4-2.2c-1.6-0.3-3.1-0.5-4.7-0.7c-1.6-0.2-2.9-0.3-4.1-0.4
			C13.4,32,11.7,32,11.7,32s0.1,0.4,0.4,1C12.5,33.5,12.9,34.6,13.3,35.7L13.3,35.7z"/>
		<path class="st0" d="M22.8,54.4c-0.5,0-1,0.1-1.7,0.1c-1.1,0.1-2.5,0.2-3.9,0.4s-3,0.4-4.6,0.7c-3.1,0.6-6.2,1.4-8.5,2.3
			c-2.3,0.7-3.9,1.3-3.9,1.3s0.3,0.3,0.7,0.8c0.5,0.5,1.2,1.2,2.1,2.2c1.7,1.8,4.1,3.9,6.6,5.9c2.6,2,5.1,3.7,7.1,4.9
			c0.6,0.4,1.2,0.7,1.8,1c0,0.6,0,1.2,0,2C18.4,68.4,20,61,22.8,54.4L22.8,54.4L22.8,54.4z"/>
		<path class="st0" d="M33.5,24c0.2,1.6,0.4,3.1,0.7,4.6c0.1,0.7,0.3,1.4,0.4,2.1c0.1,0.6,0.3,1.2,0.4,1.9c0.3,1.3,0.6,2.3,0.8,2.9
			c-0.1,0.1-0.3,0.3-0.4,0.4c5.1-5,11.2-8.9,17.9-11.7c-0.5-0.4-1.1-1-2-1.8c-0.9-0.7-2-1.7-3.1-2.5s-2.5-1.8-3.7-2.7
			c-1.3-0.9-2.7-1.8-3.9-2.5c-1.3-0.7-2.6-1.4-3.6-2c-2.2-1.1-3.7-1.8-3.7-1.8s-0.1,1.7-0.1,4.1c0,1.2,0,2.7,0.1,4.1
			C33.2,20.8,33.3,22.5,33.5,24L33.5,24z"/>
		<path class="st0" d="M16.6,94.8c1.4,0.3,2.7,0.5,3.9,0.7c0.6,0.1,1.1,0.2,1.6,0.2C19.8,89.6,18.5,83,18.5,76c0,0,0,0,0,0.1
			c-0.3,0.2-0.6,0.3-1,0.5c-2.1,1-4.8,2.6-7.4,4.3c-2.7,1.8-5.2,3.7-7,5.3s-3,2.7-3,2.7s0.4,0.2,1,0.5c0.6,0.3,1.6,0.7,2.7,1.2
			c1.1,0.5,2.5,1,3.9,1.4c1.4,0.5,3,0.9,4.4,1.4C13.6,94.1,15.1,94.4,16.6,94.8L16.6,94.8z"/>
		<path class="st0" d="M74.5,20c0.1,0,0.1,0,0.2,0h-0.1c-0.3-0.6-0.7-1.6-1.3-2.6c-1-2.1-2.6-4.8-4.3-7.4c-1.8-2.7-3.7-5.2-5.3-7
			C62.1,1.2,61,0,61,0l-0.5,1c-0.3,0.6-0.7,1.6-1.2,2.7c-0.5,1.1-1,2.5-1.6,3.9s-0.9,3-1.4,4.4c-0.4,1.4-0.8,3.1-1.1,4.4
			c-0.3,1.4-0.5,2.7-0.7,3.9c-0.2,1.7-0.4,2.9-0.4,3.4C60.4,21.4,67.2,20,74.5,20L74.5,20z"/>
		<path class="st0" d="M97.8,25c12.4,5.7,22.4,15.8,28,28.3c0.4-0.5,1-1.2,1.8-2.1c0.7-0.9,1.7-2,2.5-3.1c0.8-1.1,1.8-2.5,2.7-3.7
			c0.9-1.3,1.8-2.7,2.5-3.9c0.7-1.3,1.4-2.6,2-3.6c1.1-2.2,1.8-3.7,1.8-3.7s-1.7-0.1-4.1-0.1c-1.2,0-2.7,0-4.1,0.1
			c-1.6,0.1-3.1,0.2-4.7,0.4c-1.6,0.2-3.1,0.4-4.6,0.7c-0.7,0.1-1.4,0.3-2.1,0.4c-0.6,0.1-1.2,0.3-1.9,0.4c-2.3,0.5-3.6,1-3.6,1l0,0
			c-0.1-0.1-0.2-0.2-0.3-0.3c0.2-0.6,0.5-1.6,0.9-2.8c0.7-2.3,1.6-5.2,2.2-8.4c0.3-1.6,0.5-3.1,0.7-4.7c0.2-1.4,0.3-2.9,0.4-4.1
			c0.2-2.4,0.2-4.1,0.2-4.1s-0.4,0.1-1,0.4c-0.7,0.3-1.7,0.6-2.8,1.1c-2.3,0.9-5.3,2.3-8,3.8c-2.8,1.6-5.4,3.3-7.2,4.7
			c-0.9,0.7-1.7,1.2-2.2,1.7C96.3,23.9,96,24,96,24s0.3,0.1,0.8,0.4C97,24.7,97.3,24.8,97.8,25L97.8,25z"/>
		<path class="st0" d="M95.7,24.1c0-0.6-0.1-1.8-0.2-3.1c-0.1-1.1-0.2-2.5-0.4-3.9s-0.4-3-0.7-4.6C93.8,9.4,93,6.3,92.1,4
			c-0.7-2.3-1.3-3.9-1.3-3.9s-0.5,0.3-1,0.8c-0.5,0.5-1.2,1.2-2.2,2.1c-1.8,1.7-3.9,4.1-5.9,6.6c-2,2.6-3.7,5.1-4.9,7.1
			c-1.1,1.9-1.8,3.1-1.9,3.3C82.3,20.1,89.3,21.5,95.7,24.1L95.7,24.1z"/>
		<path class="st0" d="M136.7,114.2c-0.9-2.3-2.3-5.3-3.8-8c-1.6-2.8-3.3-5.4-4.7-7.2c-0.6-0.8-1.1-1.6-1.6-2.1
			c0-0.1,0.1-0.2,0.1-0.4c-2.6,6.5-6.3,12.4-11,17.5c0.4,0.1,0.8,0.3,1.2,0.4c2.3,0.7,5.2,1.6,8.4,2.2c1.6,0.3,3.1,0.5,4.7,0.7
			s2.9,0.3,4.1,0.4c2.4,0.2,4.1,0.2,4.1,0.2s-0.1-0.4-0.4-1C137.5,116.4,137.1,115.3,136.7,114.2L136.7,114.2z"/>
		<path class="st0" d="M74.5,132.1c0.6,0,1.2,0,1.9,0c0.1,0.2,0.2,0.3,0.3,0.5c1,2.1,2.6,4.8,4.3,7.4c1.8,2.7,3.7,5.2,5.3,7
			c1.6,1.9,2.7,3,2.7,3l0.5-1c0.3-0.6,0.7-1.6,1.2-2.7c0.5-1.1,1-2.5,1.4-3.9c0.5-1.4,0.9-3,1.4-4.4c0.4-1.4,0.8-3.1,1.1-4.4
			c0.3-1.4,0.5-2.7,0.7-3.9c0.1-0.6,0.2-1.1,0.2-1.7C89.2,130.7,82,132.1,74.5,132.1L74.5,132.1z"/>
		<path class="st0" d="M116.4,126c-0.2-1.6-0.4-3.1-0.7-4.6c-0.1-0.7-0.3-1.4-0.4-2.1c-0.1-0.7-0.3-1.2-0.4-1.9
			c-0.2-0.7-0.4-1.4-0.5-2c-4.7,4.8-10.2,8.7-16.3,11.5c0.2,0.2,0.4,0.4,0.7,0.6c0.9,0.7,2,1.7,3.1,2.5s2.5,1.8,3.7,2.7
			c1.3,0.9,2.7,1.8,3.9,2.5c1.3,0.7,2.6,1.4,3.6,2c2.2,1.1,3.7,1.8,3.7,1.8s0.1-1.7,0.1-4.1c0-1.2,0-2.7-0.1-4.1
			C116.8,129.1,116.6,127.5,116.4,126L116.4,126z"/>
		<path class="st0" d="M146.9,87.6c-1.7-1.8-4.1-3.9-6.6-5.9c-2.6-2-5.1-3.7-7.1-4.9c-1.2-0.7-2.2-1.2-2.7-1.6c0-0.3,0-0.6,0-0.9
			c0.5-0.3,1.2-0.6,2.1-1c2.1-1,4.8-2.6,7.4-4.3c2.7-1.8,5.2-3.7,7-5.3c1.9-1.6,3-2.7,3-2.7s-0.4-0.2-1-0.5s-1.6-0.7-2.7-1.2
			c-1.1-0.5-2.5-1-3.9-1.4c-1.4-0.5-3-0.9-4.6-1.4c-1.4-0.4-3.1-0.8-4.4-1.1c-1.4-0.3-2.7-0.5-3.9-0.7c-1.8-0.2-3-0.4-3.5-0.4
			c2.9,6.7,4.6,14.2,4.6,22c0,6.8-1.2,13.4-3.5,19.6c0.5,0,1.1-0.1,1.9-0.1c1.1-0.1,2.5-0.2,3.9-0.4c1.4-0.2,3-0.4,4.6-0.7
			c3.1-0.6,6.2-1.4,8.5-2.3c2.3-0.7,3.9-1.3,3.9-1.3s-0.3-0.3-0.7-0.8C148.5,89.3,147.8,88.6,146.9,87.6L146.9,87.6z"/>
		<path class="st0" d="M35.6,116.4c0,0.2-0.1,0.3-0.2,0.5c-0.7,2.3-1.6,5.2-2.2,8.4c-0.3,1.6-0.5,3.1-0.7,4.7
			c-0.2,1.4-0.3,2.9-0.4,4.1c-0.2,2.4-0.2,4.1-0.2,4.1s0.4-0.1,1-0.4c0.7-0.3,1.7-0.6,2.8-1.1c2.3-0.9,5.3-2.3,8-3.8
			c2.8-1.6,5.4-3.3,7.2-4.7c0.3-0.3,0.6-0.5,0.9-0.7C45.7,124.7,40.2,120.9,35.6,116.4L35.6,116.4z"/>
		<path class="st0" d="M33.7,114.5L33.7,114.5c-4.6-4.8-8.2-10.3-10.8-16.4c-0.2,0.2-0.3,0.4-0.5,0.6c-0.7,0.9-1.7,2-2.5,3.1
			c-0.8,1.1-1.8,2.5-2.7,3.7c-0.9,1.3-1.8,2.7-2.5,3.9c-0.7,1.3-1.4,2.6-2,3.6c-1.1,2.2-1.8,3.7-1.8,3.7s1.7,0.1,4.1,0.1
			c1.2,0,2.7,0,4.1-0.1c1.6-0.1,3.1-0.2,4.7-0.4c1.6-0.2,3.1-0.4,4.6-0.7c0.7-0.1,1.4-0.3,2.1-0.4c0.6-0.1,1.2-0.3,1.9-0.4
			C32.9,114.7,33.3,114.6,33.7,114.5L33.7,114.5z"/>
		<path class="st0" d="M54.5,128.4c0,0.1,0,0.3,0,0.4c0.1,1.1,0.2,2.5,0.4,3.9c0.2,1.4,0.4,3,0.7,4.6c0.6,3.1,1.4,6.2,2.3,8.5
			c0.7,2.3,1.3,3.9,1.3,3.9s0.3-0.3,0.8-0.7c0.5-0.5,1.2-1.2,2.2-2.1c1.8-1.7,3.9-4.1,5.9-6.6c2-2.6,3.7-5.1,4.9-7.1
			c0.2-0.4,0.4-0.8,0.6-1.1C66.9,132,60.4,130.7,54.5,128.4L54.5,128.4z"/>
	</g>
	<ellipse class="st0" cx="75" cy="75" rx="52.5" ry="52.5"/>
</g>
</svg>
