<?xml version="1.0" encoding="UTF-8"?><svg id="_лой_1" xmlns="http://www.w3.org/2000/svg" viewBox="0 0 150 150"><defs><style>.cls-1{fill:#ffca00;}</style></defs><g><path class="cls-1" d="M13.47,35.81c.9,2.26,2.32,5.23,3.85,7.98,1.59,2.79,3.27,5.36,4.67,7.23,.62,.83,1.14,1.51,1.54,2.02h0c2.86-6.31,6.85-12.01,11.73-16.81-.57-.2-1.27-.44-2.09-.7-2.23-.73-5.19-1.51-8.34-2.14-1.55-.3-3.11-.55-4.61-.76-1.5-.21-2.92-.36-4.12-.45-2.42-.19-4.09-.24-4.09-.24,0,0,.14,.39,.38,1.07,.26,.69,.63,1.66,1.1,2.79Z"/><path class="cls-1" d="M22.9,54.41c-.5,.03-1.06,.07-1.69,.12-1.17,.09-2.51,.24-3.95,.44-1.44,.2-3.01,.46-4.57,.77-3.06,.64-6.24,1.48-8.52,2.24-2.32,.75-3.88,1.35-3.88,1.35,0,0,.27,.31,.77,.85,.5,.53,1.22,1.29,2.08,2.16,1.7,1.74,4.16,3.94,6.62,5.88,2.55,1.97,5.07,3.69,7.09,4.88,.67,.4,1.25,.74,1.74,1.02-.02,.65-.05,1.29-.05,1.94,0-7.68,1.55-15,4.35-21.67h0Z"/><path class="cls-1" d="M33.66,24.1c.18,1.56,.45,3.15,.71,4.58,.13,.72,.27,1.4,.41,2.05,.15,.65,.3,1.27,.44,1.83,.33,1.3,.61,2.31,.79,2.94-.14,.13-.27,.26-.41,.39,5.11-4.95,11.15-8.92,17.85-11.65-.49-.44-1.16-1.04-2-1.74-.88-.74-1.95-1.61-3.12-2.49-1.16-.87-2.44-1.78-3.77-2.66-1.33-.9-2.67-1.71-3.98-2.46-1.3-.75-2.57-1.45-3.65-1.99-2.16-1.09-3.69-1.77-3.69-1.77,0,0-.12,1.65-.11,4.13,0,1.24,.03,2.65,.11,4.16,.09,1.53,.23,3.12,.41,4.69Z"/><path class="cls-1" d="M16.64,94.81c1.44,.3,2.74,.55,3.9,.71,.58,.08,1.11,.16,1.57,.21-2.3-6.12-3.56-12.74-3.56-19.66,0,.02,0,.04,0,.06-.33,.16-.67,.34-1.05,.53-2.09,1.06-4.75,2.61-7.4,4.38-2.64,1.76-5.17,3.74-7.05,5.32-1.84,1.58-3.05,2.72-3.05,2.72,0,0,.37,.18,1.03,.49,.64,.31,1.6,.73,2.74,1.2,1.14,.47,2.47,.99,3.88,1.5,1.44,.5,2.98,.98,4.5,1.42,1.5,.44,3.07,.8,4.49,1.1Z"/><path class="cls-1" d="M74.51,20.12c.07,0,.14,0,.22,0-.03,0-.06,0-.1,0-.29-.6-.72-1.51-1.3-2.63-1.06-2.09-2.61-4.75-4.38-7.4-1.76-2.64-3.74-5.17-5.32-7.05-1.58-1.84-2.72-3.05-2.72-3.05l-.49,1.03c-.31,.64-.73,1.6-1.2,2.74-.47,1.14-.99,2.47-1.5,3.88-.5,1.44-.98,2.98-1.42,4.5-.44,1.5-.8,3.07-1.1,4.49-.3,1.44-.55,2.74-.71,3.9-.24,1.67-.38,2.91-.43,3.46,6.34-2.49,13.24-3.88,20.46-3.88Z"/><path class="cls-1" d="M97.74,25.18c12.45,5.69,22.44,15.8,27.97,28.33,.44-.49,1.06-1.19,1.79-2.06,.74-.88,1.61-1.95,2.49-3.12,.87-1.16,1.78-2.44,2.66-3.77,.9-1.33,1.71-2.67,2.46-3.98,.75-1.3,1.45-2.56,1.99-3.65,1.09-2.16,1.77-3.69,1.77-3.69,0,0-1.65-.12-4.13-.11-1.24,0-2.65,.02-4.16,.11-1.53,.09-3.12,.23-4.69,.41-1.56,.18-3.15,.45-4.58,.71-.72,.13-1.4,.27-2.05,.41-.65,.15-1.27,.3-1.83,.44-2.25,.56-3.67,1.01-3.67,1.01l.03,.03c-.09-.09-.19-.18-.28-.27,.23-.63,.56-1.6,.96-2.83,.73-2.23,1.51-5.19,2.14-8.34,.3-1.55,.55-3.11,.76-4.61,.21-1.5,.36-2.92,.45-4.12,.19-2.42,.24-4.09,.24-4.09,0,0-.39,.14-1.07,.38-.69,.26-1.66,.63-2.79,1.1-2.26,.9-5.23,2.32-7.98,3.85-2.79,1.59-5.36,3.27-7.23,4.67-.93,.69-1.68,1.27-2.19,1.68-.52,.42-.81,.67-.81,.67,0,0,.31,.12,.84,.39,.25,.13,.57,.28,.92,.45Z"/><path class="cls-1" d="M95.66,24.27c-.03-.66-.09-1.72-.19-3.06-.09-1.17-.24-2.51-.44-3.95-.2-1.44-.46-3.01-.77-4.57-.64-3.06-1.48-6.24-2.24-8.52-.75-2.32-1.35-3.88-1.35-3.88,0,0-.31,.27-.85,.77-.53,.5-1.29,1.22-2.16,2.08-1.74,1.7-3.94,4.16-5.88,6.62-1.97,2.55-3.69,5.07-4.88,7.09-1.13,1.88-1.8,3.15-1.87,3.28,7.3,.07,14.27,1.53,20.65,4.14Z"/><path class="cls-1" d="M136.53,114.19c-.9-2.26-2.32-5.23-3.85-7.98-1.59-2.79-3.27-5.36-4.67-7.23-.64-.86-1.18-1.56-1.58-2.07,.05-.12,.1-.25,.15-.37-2.57,6.52-6.32,12.45-11,17.51,.38,.13,.8,.27,1.26,.41,2.23,.73,5.19,1.51,8.34,2.14,1.55,.3,3.11,.55,4.61,.76,1.5,.21,2.92,.36,4.12,.45,2.43,.19,4.09,.24,4.09,.24,0,0-.14-.39-.38-1.07-.26-.69-.63-1.66-1.1-2.79Z"/><path class="cls-1" d="M74.51,132.04c.64,0,1.27-.03,1.91-.05,.09,.17,.17,.33,.26,.51,1.06,2.09,2.61,4.75,4.38,7.4,1.76,2.64,3.74,5.17,5.32,7.05,1.58,1.84,2.72,3.05,2.72,3.05l.49-1.03c.31-.64,.73-1.6,1.2-2.74,.47-1.14,.99-2.47,1.5-3.88,.5-1.44,.98-2.98,1.42-4.5,.44-1.5,.8-3.07,1.1-4.49,.3-1.44,.55-2.74,.71-3.9,.09-.59,.16-1.13,.22-1.61-6.55,2.69-13.72,4.18-21.23,4.18Z"/><path class="cls-1" d="M116.34,125.9c-.18-1.56-.45-3.15-.71-4.58-.13-.72-.27-1.4-.41-2.05-.15-.65-.3-1.27-.44-1.83-.19-.77-.37-1.44-.53-1.99-4.7,4.75-10.25,8.64-16.39,11.47,.21,.18,.44,.38,.68,.58,.88,.74,1.95,1.61,3.12,2.49,1.16,.87,2.44,1.78,3.77,2.66,1.33,.9,2.67,1.71,3.98,2.46,1.3,.75,2.56,1.45,3.65,1.99,2.16,1.09,3.69,1.77,3.69,1.77,0,0,.12-1.65,.11-4.13,0-1.24-.03-2.65-.11-4.16-.09-1.53-.23-3.12-.41-4.69Z"/><path class="cls-1" d="M146.85,87.65c-1.7-1.74-4.16-3.94-6.62-5.88-2.55-1.97-5.07-3.69-7.09-4.88-1.19-.71-2.13-1.24-2.7-1.55,0-.32-.01-.64-.02-.96,.56-.27,1.26-.62,2.08-1.04,2.09-1.06,4.75-2.61,7.4-4.38,2.64-1.76,5.17-3.74,7.05-5.32,1.84-1.58,3.05-2.72,3.05-2.72,0,0-.37-.18-1.03-.49-.64-.31-1.6-.73-2.74-1.2-1.14-.47-2.47-.99-3.88-1.5-1.44-.5-2.98-.98-4.5-1.42-1.5-.44-3.07-.8-4.49-1.1-1.44-.3-2.74-.55-3.9-.71-1.72-.25-2.98-.38-3.51-.44,2.9,6.76,4.51,14.21,4.51,22.04,0,6.87-1.24,13.44-3.5,19.52,.53-.03,1.14-.07,1.83-.13,1.17-.09,2.51-.24,3.95-.44,1.44-.2,3.01-.46,4.57-.77,3.06-.64,6.24-1.48,8.52-2.24,2.32-.75,3.88-1.35,3.88-1.35,0,0-.27-.31-.77-.85-.5-.53-1.22-1.29-2.08-2.16Z"/><path class="cls-1" d="M35.68,116.35c-.05,.16-.1,.32-.16,.49-.73,2.23-1.51,5.19-2.14,8.34-.3,1.55-.55,3.11-.76,4.61-.21,1.5-.36,2.92-.45,4.12-.19,2.43-.24,4.09-.24,4.09,0,0,.39-.14,1.07-.38,.69-.26,1.66-.63,2.79-1.1,2.26-.9,5.23-2.32,7.98-3.85,2.79-1.59,5.36-3.27,7.23-4.67,.35-.26,.66-.49,.96-.72-6.07-2.68-11.58-6.4-16.29-10.94Z"/><path class="cls-1" d="M33.81,114.46h0c-4.51-4.78-8.2-10.35-10.81-16.5-.16,.19-.33,.38-.5,.59-.74,.88-1.61,1.95-2.49,3.12-.87,1.16-1.78,2.44-2.66,3.77-.9,1.33-1.71,2.67-2.46,3.98-.75,1.3-1.45,2.56-1.99,3.65-1.09,2.16-1.77,3.69-1.77,3.69,0,0,1.65,.12,4.13,.11,1.24,0,2.65-.02,4.16-.11,1.53-.09,3.12-.23,4.69-.41,1.56-.18,3.15-.45,4.58-.71,.72-.13,1.4-.27,2.05-.41,.65-.15,1.27-.3,1.83-.44,.46-.11,.87-.22,1.25-.32Z"/><path class="cls-1" d="M54.5,128.34c.01,.15,.02,.29,.03,.45,.09,1.17,.24,2.51,.44,3.95,.2,1.44,.46,3.01,.77,4.57,.64,3.06,1.48,6.24,2.24,8.52,.75,2.32,1.35,3.88,1.35,3.88,0,0,.31-.27,.85-.77,.53-.5,1.29-1.22,2.16-2.08,1.74-1.7,3.94-4.16,5.88-6.62,1.97-2.55,3.69-5.07,4.88-7.09,.24-.41,.46-.78,.66-1.13-6.79-.09-13.28-1.38-19.28-3.68Z"/></g><circle class="cls-1" cx="74.36" cy="75.93" r="50.68"/></svg>