<?xml version="1.0" encoding="utf-8"?>
<!-- Generator: Adobe Illustrator 26.3.1, SVG Export Plug-In . SVG Version: 6.00 Build 0)  -->
<!DOCTYPE svg PUBLIC "-//W3C//DTD SVG 1.1//EN" "http://www.w3.org/Graphics/SVG/1.1/DTD/svg11.dtd" [
	<!ENTITY ns_extend "http://ns.adobe.com/Extensibility/1.0/">
	<!ENTITY ns_ai "http://ns.adobe.com/AdobeIllustrator/10.0/">
	<!ENTITY ns_graphs "http://ns.adobe.com/Graphs/1.0/">
	<!ENTITY ns_vars "http://ns.adobe.com/Variables/1.0/">
	<!ENTITY ns_imrep "http://ns.adobe.com/ImageReplacement/1.0/">
	<!ENTITY ns_sfw "http://ns.adobe.com/SaveForWeb/1.0/">
	<!ENTITY ns_custom "http://ns.adobe.com/GenericCustomNamespace/1.0/">
	<!ENTITY ns_adobe_xpath "http://ns.adobe.com/XPath/1.0/">
]>
<svg version="1.1" id="_лой_1" xmlns:x="&ns_extend;" xmlns:i="&ns_ai;" xmlns:graph="&ns_graphs;"
	 xmlns="http://www.w3.org/2000/svg" xmlns:xlink="http://www.w3.org/1999/xlink" x="0px" y="0px" viewBox="0 0 15 15"
	 style="enable-background:new 0 0 15 15;" xml:space="preserve">
<style type="text/css">
	.st0{fill:#FFCA00;}
	.st1{fill:#E3E4E5;}
</style>
<metadata>
	<sfw  xmlns="&ns_sfw;">
		<slices></slices>
		<sliceSourceBounds  bottomLeftOrigin="true" height="8.4533539" width="11.9293709" x="33.3999939" y="29.7000008">
			</sliceSourceBounds>
	</sfw>
</metadata>
<g>
	<g>
		<path class="st0" d="M7.6079636,5.6913528c0.0415268,0.1038933,0.1067657,0.240387,0.1766243,0.3664169
			c0.0728416,0.1283607,0.1500969,0.246273,0.2144661,0.3320198C8.027317,6.4281158,8.0514145,6.4592171,8.0697403,6.4824333
			C8.0696945,6.4825287,8.0696526,6.4826202,8.0696144,6.4827156C8.201004,6.1925049,8.3843346,5.9309731,8.6083565,5.7103157
			C8.5823059,5.7012672,8.5498276,5.6903076,8.5121841,5.6782608c-0.1023788-0.0334854-0.2385826-0.069252-0.3828773-0.098217
			C8.0579987,5.5660553,7.9863434,5.5547981,7.9174194,5.5453033C7.8483849,5.5356865,7.7833633,5.5288086,7.728096,5.5246811
			C7.6167068,5.5158577,7.5399971,5.5137329,7.5399971,5.5137329S7.5463905,5.5316544,7.557579,5.5630188
			C7.5693665,5.5945053,7.586483,5.6391335,7.6079636,5.6913528z"/>
		<path class="st0" d="M8.0413055,6.54599C8.0185051,6.5474091,7.9926224,6.549202,7.9636574,6.551548
			C7.9099159,6.5557213,7.8483086,6.5624008,7.7822495,6.5718765C7.7160301,6.5812531,7.6440849,6.5930252,7.5724907,6.6073799
			c-0.14048,0.0291672-0.2866211,0.0678444-0.3915596,0.1030464C7.0745316,6.7450981,7.0027809,6.7726631,7.0027809,6.7726631
			s0.0122337,0.0142174,0.0354309,0.0388222c0.0229683,0.0245476,0.0558929,0.0591698,0.0957603,0.0991249
			C7.2120476,6.9905548,7.3251915,7.091465,7.4379044,7.1809158c0.1170959,0.0904922,0.2327995,0.1696548,0.325592,0.224308
			c0.0306664,0.0183983,0.0574837,0.033947,0.0801086,0.0468178C7.8425865,7.4817429,7.8413467,7.5113869,7.8413467,7.5413322
			c0-0.352932,0.0712471-0.6891975,0.1999588-0.9953499V6.54599z"/>
		<path class="st0" d="M8.5356216,5.1535492c0.0081367,0.0717163,0.0205116,0.1446533,0.0324402,0.2101784
			C8.5741653,5.3966827,8.580452,5.4281731,8.586731,5.4577599c0.0070992,0.0298767,0.0138054,0.0581245,0.0200005,0.0842018
			C8.6216927,5.6016312,8.6347237,5.648056,8.6431808,5.6771126c-0.0062256,0.005909-0.0124016,0.0118599-0.0186348,0.017765
			C8.8591957,5.46772,9.1368294,5.2849693,9.4443016,5.1599312c-0.0223923-0.0201569-0.0533981-0.0475769-0.0918312-0.079937
			C9.3119545,5.0459785,9.2630501,5.0059509,9.2093773,4.9654846c-0.05336-0.0398827-0.1121559-0.0815659-0.173027-0.1221466
			C8.9751434,4.802063,8.9135666,4.7650108,8.8535576,4.7301407C8.7938499,4.6957245,8.7357368,4.6636047,8.6861038,4.6385345
			c-0.0993881-0.05023-0.1693573-0.0811691-0.1693573-0.0811691S8.511055,4.6330318,8.5116844,4.7471371
			C8.511879,4.8039436,8.5128326,4.8688393,8.5165977,4.9381294C8.5209007,5.0082016,8.5272903,5.0816574,8.5356216,5.1535492z"/>
		<path class="st0" d="M7.7535591,8.4018669C7.8195305,8.4156723,7.8791885,8.426918,7.9326935,8.434391
			c0.0265884,0.0038719,0.0507889,0.0071335,0.0721703,0.0098534c-0.1054611-0.2809677-0.163517-0.5851059-0.163517-0.9029121
			c0,0.0009308,0.0000648,0.0018463,0.0000648,0.0027733c-0.0150795,0.0075417-0.0309868,0.0155678-0.0484047,0.024559
			C7.6970444,7.6174278,7.5747147,7.6883926,7.4529457,7.769825C7.3319016,7.8505821,7.2156792,7.9414864,7.1292114,8.0143394
			C7.0446892,8.0867805,6.9892807,8.139492,6.9892807,8.139492s0.0171394,0.0081825,0.0471382,0.0224915
			C7.0659409,8.1761436,7.1098518,8.1955719,7.162426,8.2172356C7.2148666,8.238945,7.2758102,8.2628632,7.3405762,8.28619
			c0.0662079,0.0229988,0.1368942,0.0452042,0.2065697,0.0650673C7.6160812,8.3713913,7.6880913,8.3879242,7.7535591,8.4018669z"/>
		<path class="st0" d="M10.4116821,4.9709969c0.003334,0,0.0066071,0.0002403,0.0099411,0.0002518
			c-0.0014763-0.0000381-0.0029449-0.0001068-0.004425-0.0001144c-0.0131149-0.0277061-0.0332832-0.069294-0.059845-0.1207581
			c-0.0487633-0.0959606-0.1197281-0.2182941-0.2011642-0.3400593c-0.080761-0.1210499-0.1716614-0.2372665-0.2445107-0.32374
			C9.8392334,4.1020603,9.7865181,4.0466461,9.7865181,4.0466461s-0.0081787,0.0171432-0.0224876,0.047142
			C9.7498665,4.123312,9.730442,4.1672211,9.7087746,4.2197895C9.6870689,4.2722321,9.663147,4.3331757,9.6398239,4.3979454
			c-0.0229988,0.0662041-0.045208,0.1368961-0.0650635,0.2065659C9.5546227,4.6734467,9.5380898,4.7454548,9.524147,4.8109283
			C9.5103378,4.8768997,9.4990921,4.9365578,9.4916191,4.9900627C9.4804344,5.0668755,9.4743614,5.1236115,9.4718552,5.1490669
			C9.7630463,5.0345726,10.0798492,4.9709969,10.4116821,4.9709969z"/>
		<path class="st0" d="M11.4788094,5.2031136c0.5716629,0.2613335,1.0306244,0.7257614,1.284771,1.3013573
			c0.0203209-0.0225525,0.0488091-0.0546913,0.0824356-0.0946312c0.0340157-0.0405159,0.0740471-0.0894203,0.1145096-0.1430931
			c0.0398903-0.05336,0.0815659-0.1121559,0.1221504-0.1730309c0.0412788-0.0612068,0.0783234-0.1227798,0.1132011-0.1827927
			c0.0344124-0.0597,0.0665245-0.1178169,0.0916023-0.1674461c0.0502319-0.0993958,0.0811653-0.1693611,0.0811653-0.1693611
			S13.292984,5.5684242,13.178875,5.5690536c-0.0568008,0.0001945-0.1217041,0.0011444-0.1909904,0.0049133
			c-0.070076,0.0043068-0.1435318,0.0106926-0.2154198,0.0190201c-0.0717201,0.0081406-0.1446571,0.0205154-0.2101784,0.0324402
			c-0.032959,0.0061035-0.0644493,0.012394-0.0940323,0.0186691c-0.0298805,0.007103-0.0581284,0.0138092-0.0842018,0.0200005
			c-0.1032333,0.0258827-0.1685829,0.0464478-0.1685829,0.0464478s0.0006905,0.000782,0.001194,0.001358
			c-0.0042343-0.0041885-0.0086555-0.0081749-0.012928-0.0123291c0.0103493-0.0287933,0.0258713-0.0733147,0.044014-0.1300201
			c0.0334892-0.102375,0.0692558-0.2385826,0.0982208-0.3828773c0.0139847-0.0713081,0.0252495-0.1429672,0.0347404-0.2118874
			c0.009613-0.0690384,0.0164948-0.1340561,0.0206223-0.1893234c0.0088234-0.1113892,0.0109444-0.188097,0.0109444-0.188097
			s-0.0179176,0.0063915-0.0492859,0.0175743c-0.0314827,0.0117931-0.0761108,0.0289078-0.128334,0.0503845
			c-0.1038857,0.0415325-0.2403831,0.1067715-0.3664093,0.1766262c-0.1283646,0.0728455-0.2462807,0.1500931-0.3320274,0.2144737
			c-0.0426865,0.0314674-0.0769844,0.0582085-0.1007004,0.0770302c-0.0237389,0.0195084-0.0373077,0.0306625-0.0373077,0.0306625
			s0.0143929,0.0056114,0.038414,0.0180969C11.4482689,5.1882286,11.4625969,5.1951523,11.4788094,5.2031136z"/>
		<path class="st0" d="M11.3834076,5.1616478c-0.001339-0.0304489-0.0039444-0.0789795-0.0089455-0.1406212
			c-0.0041695-0.0537415-0.010849-0.1153526-0.0203285-0.1814079c-0.0093727-0.0662251-0.0211487-0.1381664-0.0354958-0.2097588
			c-0.029171-0.1404819-0.0678482-0.2866211-0.103054-0.3915596c-0.0346642-0.1064053-0.062233-0.178154-0.062233-0.178154
			s-0.0142174,0.0122395-0.038826,0.0354347c-0.0245399,0.0229664-0.0591698,0.0558949-0.0991249,0.0957603
			c-0.0799446,0.0780754-0.1808472,0.1912136-0.2703018,0.3039341c-0.0904961,0.1170959-0.1696548,0.2327919-0.224308,0.3255863
			c-0.0518265,0.0863724-0.0826759,0.1447105-0.0858459,0.1507263C10.7703934,4.974575,11.0903587,5.041851,11.3834076,5.1616478z"
			/>
		<path class="st0" d="M13.260685,9.2920265c-0.0415306-0.1038857-0.1067734-0.240387-0.1766243-0.3664093
			c-0.0728455-0.1283607-0.1500969-0.2462807-0.2144699-0.3320274c-0.0291939-0.0395927-0.0540199-0.0715752-0.072525-0.0949783
			c0.0022507-0.0056152,0.0043983-0.0112839,0.0066605-0.0168953c-0.1179314,0.2997169-0.2901802,0.5719643-0.5051956,0.8043785
			c0.0176811,0.0059395,0.0367813,0.0122566,0.0579338,0.0190239c0.1023712,0.0334892,0.2385788,0.0692558,0.3828773,0.0982208
			c0.0713043,0.0139847,0.1429596,0.0252419,0.2118835,0.0347404c0.0690384,0.009613,0.1340599,0.0164909,0.1893196,0.0206184
			c0.111393,0.0088234,0.1880989,0.0109482,0.1880989,0.0109482s-0.0063896-0.0179214-0.0175781-0.0492859
			C13.2992783,9.3888741,13.2821617,9.3442497,13.260685,9.2920265z"/>
		<path class="st0" d="M10.4116821,10.1116714c0.0293694,0,0.058445-0.0012398,0.0875854-0.0022163
			c0.0039215,0.0077133,0.0077896,0.0153427,0.0120277,0.0235519c0.0487595,0.0959587,0.1197281,0.2182922,0.2011604,0.3400612
			c0.080761,0.1210442,0.1716614,0.2372627,0.2445145,0.3237343c0.0724411,0.0845222,0.1251526,0.1399307,0.1251526,0.1399307
			s0.0081787-0.0171394,0.0224953-0.0471344c0.0141563-0.0295296,0.0335846-0.0734406,0.0552521-0.1260071
			c0.0217094-0.0524445,0.0456238-0.1133881,0.0689507-0.1781578c0.0229988-0.0662041,0.0452042-0.1368904,0.0650635-0.2065659
			c0.0201378-0.0689354,0.0366745-0.1409416,0.0506096-0.2064171c0.0138168-0.0659637,0.0250587-0.1256294,0.0325317-0.1791344
			c0.0039711-0.0272827,0.0072823-0.0519562,0.0100479-0.0737381C11.086235,10.0430946,10.7570305,10.1116714,10.4116821,10.1116714
			z"/>
		<path class="st0" d="M12.3330269,9.8298378c-0.0081367-0.0717239-0.0205193-0.1446609-0.032444-0.210186
			c-0.0061035-0.0329514-0.012394-0.0644455-0.0186691-0.0940285c-0.0070953-0.0298805-0.0138054-0.0581245-0.0200005-0.0842018
			c-0.0089073-0.0355339-0.0170975-0.0661736-0.024128-0.0916138c-0.2158775,0.217968-0.4706535,0.3970718-0.7528419,0.5269737
			c0.0098343,0.0084648,0.0201721,0.0172958,0.0312271,0.0266037c0.0405197,0.0340195,0.0894241,0.0740509,0.1431007,0.1145096
			c0.0533562,0.0398865,0.1121521,0.0815659,0.1730232,0.1221504c0.0612106,0.041275,0.1227837,0.0783234,0.1827927,0.1132011
			c0.0597038,0.0344086,0.1178169,0.0665283,0.1674538,0.0916023c0.0993881,0.0502319,0.1693611,0.0811653,0.1693611,0.0811653
			s0.0056839-0.0756645,0.0050583-0.1897697c-0.0001945-0.0568047-0.0011482-0.1217041-0.0049133-0.1909943
			C12.3477402,9.9751778,12.3413544,9.901722,12.3330269,9.8298378z"/>
		<path class="st0" d="M13.7346687,8.0727692c-0.0780716-0.0799446-0.1912117-0.1808472-0.3039322-0.2703018
			c-0.1170921-0.0904961-0.2327919-0.1696548-0.3255882-0.2243118c-0.054512-0.0327034-0.0977364-0.0569763-0.1240082-0.0713921
			c-0.0001945-0.0147858-0.0006714-0.0295067-0.0011177-0.0442314c0.0256577-0.0124054,0.0579758-0.028389,0.0956154-0.0478096
			c0.0959587-0.0487633,0.2182922-0.1197281,0.3400574-0.2011681c0.121048-0.0807571,0.2372704-0.1716614,0.3237381-0.2445107
			c0.0845222-0.0724411,0.1399307-0.1251564,0.1399307-0.1251564s-0.0171394-0.0081787-0.047142-0.0224876
			c-0.0295181-0.0141563-0.0734291-0.0335884-0.1260033-0.0552559c-0.0524406-0.0217056-0.1133804-0.0456276-0.1781464-0.0689545
			c-0.0662117-0.022995-0.136898-0.0452042-0.2065735-0.0650597c-0.0689354-0.0201378-0.1409416-0.0366707-0.2064133-0.0506134
			c-0.0659676-0.0138092-0.1256332-0.0250549-0.1791306-0.0325279c-0.0788383-0.0114822-0.136879-0.0176201-0.1612854-0.0199928
			c0.1332855,0.3106995,0.2073441,0.6528282,0.2073441,1.0123367c0,0.3153419-0.0570602,0.6172905-0.1609612,0.8964348
			c0.0242653-0.0014687,0.0521812-0.0033607,0.0839272-0.0059357c0.0537453-0.0041695,0.1153564-0.0108528,0.1814156-0.0203285
			c0.0662231-0.0093765,0.1381683-0.0211487,0.2097549-0.0354958c0.14048-0.029171,0.2866287-0.0678482,0.3915634-0.103054
			c0.1063995-0.0346718,0.1781502-0.062233,0.1781502-0.062233s-0.0122337-0.0142174-0.0354347-0.038826
			C13.8074608,8.1473541,13.7745361,8.1127243,13.7346687,8.0727692z"/>
		<path class="st0" d="M8.6282196,9.3912888C8.6257973,9.3987122,8.6234169,9.405941,8.6208916,9.413826
			c-0.0334854,0.1023788-0.069252,0.2385864-0.098217,0.382885c-0.0139847,0.0713043-0.0252419,0.1429634-0.0347404,0.2118797
			c-0.0096092,0.0690422-0.0164948,0.1340637-0.0206223,0.1893234c-0.0088234,0.111393-0.0109444,0.1880989-0.0109444,0.1880989
			s0.0179176-0.0063934,0.0492821-0.0175743c0.0314865-0.0117912,0.0761185-0.0289078,0.1283379-0.0503845
			c0.1038895-0.0415344,0.2403831-0.1067734,0.3664131-0.1766243c0.1283607-0.0728493,0.246273-0.1500969,0.3320236-0.2144737
			c0.0160255-0.0118141,0.0304375-0.022686,0.0439835-0.0330009C9.0974503,9.7710114,8.8446579,9.5999947,8.6282196,9.3912888z"/>
		<path class="st0" d="M8.5422325,9.3043518l0.0000343,0.0000305C8.3349457,9.0846405,8.1655388,8.8287811,8.0455132,8.5466385
			C8.0381699,8.5551949,8.0305748,8.5641022,8.022625,8.5735397C7.9886093,8.6140594,7.9485817,8.6629601,7.908123,8.7166328
			c-0.0398941,0.05336-0.0815697,0.1121559-0.1221542,0.1730309C7.7446899,8.9508743,7.7076454,9.0124512,7.6727715,9.0724564
			C7.6383553,9.1321602,7.6062393,9.1902733,7.5811653,9.2399101C7.5309334,9.3392982,7.5,9.4092712,7.5,9.4092712
			s0.0756645,0.0056839,0.1897659,0.0050545c0.0568047-0.0001869,0.1217079-0.0011444,0.1909943-0.0049133
			C7.9508324,9.4051094,8.024292,9.3987198,8.09618,9.3903923c0.0717163-0.0081329,0.1446533-0.0205154,0.2101784-0.0324402
			C8.3393173,9.3518486,8.3708038,9.345562,8.4003906,9.339283C8.4302673,9.3321877,8.458519,9.3254738,8.4845924,9.3192825
			C8.5056076,9.3140106,8.5245857,9.3090553,8.5422325,9.3043518z"/>
		<path class="st0" d="M9.4926033,9.9417763C9.4931259,9.948616,9.4935989,9.9551697,9.4941826,9.9623528
			c0.0041656,0.0537491,0.010849,0.1153526,0.0203247,0.1814079c0.0093765,0.066227,0.0211525,0.1381683,0.0354958,0.2097626
			c0.029171,0.14048,0.067852,0.2866249,0.1030579,0.3915634c0.034668,0.1063995,0.0622292,0.1781502,0.0622292,0.1781502
			s0.0142212-0.0122375,0.038826-0.0354385c0.0245476-0.0229645,0.0591698-0.0558929,0.0991249-0.0957603
			c0.0799446-0.0780754,0.1808472-0.1912117,0.2703018-0.3039284c0.0904999-0.1170959,0.1696548-0.2327957,0.2243118-0.325592
			c0.0112457-0.0187416,0.0212517-0.0357971,0.0304756-0.0516968C10.0665131,10.106842,9.7682228,10.0473785,9.4926033,9.9417763z"
			/>
	</g>
	<circle class="st0" cx="10.4051361" cy="7.5344772" r="2.3280754"/>
</g>
<g>
	<path class="st1" d="M10.6499977,6.7999992c-0.4000015,0-0.7999992,0.0999985-1.2000008,0.2999992
		c-0.4000015-0.5999985-1.0999985-1-1.9000015-1c-0.7999992,0-1.5,0.4000015-1.9000015,1
		C5.2499924,6.7999992,4.8499947,6.6999969,4.3499947,6.6999969c-1.2999992,0-2.4000015,1.0999985-2.4000015,2.4000015
		C1.9499931,10.3999977,3.0499916,11.5,4.3499947,11.5c0.2999992,0,0.5999985-0.0999985,0.9000015-0.2000008
		C5.6499977,12,6.4499969,12.5,7.3499947,12.5c0.9000015,0,1.7000008-0.5,2.0999985-1.2999992
		c0.4000015,0.2000008,0.7999992,0.4000015,1.2999992,0.4000015c1.2999992,0,2.4000015-1.0999985,2.4000015-2.4000015
		C13.0499992,7.8999977,11.9500008,6.7999992,10.6499977,6.7999992z"/>
</g>
</svg>
