<?xml version="1.0" encoding="UTF-8"?><svg id="_лой_1" xmlns="http://www.w3.org/2000/svg" viewBox="0 0 150 150"><defs><style>.cls-1{fill:#bee3fc;}.cls-2{fill:#8dc6ff;}.cls-3{fill:#ffc107;}</style></defs><path class="cls-2" d="M120.77,8.17c-4.68,0-9.36,1.17-14.04,3.5-4.68-7.01-12.87-11.68-22.23-11.68s-17.55,4.67-22.23,11.68c-4.68-3.5-9.36-4.67-15.21-4.67-15.21,0-28.08,12.85-28.08,28.03s12.87,28.02,28.08,28.02c3.51,0,7.02-1.17,10.53-2.34,4.68,8.17,14.04,14.01,24.56,14.01s19.89-5.84,24.56-15.18c4.68,2.34,9.36,4.67,15.21,4.67,15.21,0,28.08-12.84,28.08-28.02-1.17-15.18-14.04-28.02-29.25-28.02h.02Z"/><path class="cls-1" d="M95.53,47.52c-4.39,0-8.78,1.1-13.18,3.29-4.39-6.58-12.08-10.96-20.87-10.96s-16.47,4.38-20.87,10.96c-4.39-3.29-8.78-4.38-14.27-4.38-14.26,0-26.34,12.05-26.34,26.3s12.08,26.3,26.35,26.3c3.3,0,6.59-1.1,9.88-2.2,4.39,7.67,13.18,13.15,23.06,13.15s18.67-5.48,23.06-14.24c4.39,2.2,8.78,4.38,14.27,4.38,14.27,0,26.35-12.05,26.35-26.3-1.1-14.24-13.18-26.3-27.45-26.3h.01Z"/><polygon class="cls-3" points="55.31 78.23 80.56 70.8 40.48 114.78 65.87 110.41 24.63 150 45.17 121.45 19.7 124.32 55.31 78.23"/></svg>